G04*
G04 #@! TF.GenerationSoftware,Altium Limited,Altium Designer,21.3.2 (30)*
G04*
G04 Layer_Color=16711935*
%FSLAX25Y25*%
%MOIN*%
G70*
G04*
G04 #@! TF.SameCoordinates,97996B78-1690-4D19-8AB1-FF8F13014A98*
G04*
G04*
G04 #@! TF.FilePolarity,Positive*
G04*
G01*
G75*
%ADD92C,0.00394*%
D92*
X141123Y427774D02*
G03*
X139527Y431854I-24981J-7416D01*
G01*
X144762Y418838D02*
G03*
X143746Y421637I-9723J-1945D01*
G01*
X145156Y416893D02*
G03*
X144762Y418838I-4999J0D01*
G01*
X145387Y404690D02*
G03*
X146968Y401966I3138J0D01*
G01*
X77008Y431854D02*
G03*
X75412Y427774I23386J-11496D01*
G01*
X72789Y421637D02*
G03*
X71773Y418838I8707J-4744D01*
G01*
D02*
G03*
X71379Y416893I4605J-1945D01*
G01*
X69567Y401966D02*
G03*
X71148Y404690I-1557J2724D01*
G01*
X61327Y433086D02*
G03*
X60106Y431906I-39J-1180D01*
G01*
X10894D02*
G03*
X9673Y433086I-1181J0D01*
G01*
X89905Y24114D02*
X89905Y20965D01*
X89118Y24114D02*
X89905Y24114D01*
X89118Y20965D02*
Y24114D01*
X85968Y20965D02*
X85968Y24114D01*
X85181Y24114D02*
X85968Y24114D01*
X85181Y20965D02*
Y24114D01*
X77307Y20965D02*
Y24114D01*
X78094Y24114D01*
Y20965D02*
Y24114D01*
X76126Y20965D02*
Y24114D01*
X75339Y24114D02*
X76126Y24114D01*
X75339Y20965D02*
X75339Y24114D01*
X69433Y20965D02*
Y24114D01*
X70220D01*
X70220Y20965D01*
X44630Y20965D02*
Y24114D01*
X43843Y24114D02*
X44630Y24114D01*
X43843Y20965D02*
Y24114D01*
X48567Y20965D02*
X48567Y24114D01*
X47780D02*
X48567D01*
X47780Y20965D02*
Y24114D01*
X52504Y24114D02*
X52504Y20965D01*
X51717Y24114D02*
X52504Y24114D01*
X51717Y20965D02*
Y24114D01*
X56441Y20965D02*
Y24114D01*
X55654Y24114D02*
X56441Y24114D01*
X55654Y20965D02*
X55654Y24114D01*
X58409Y20965D02*
X58409Y24114D01*
X57622Y24114D02*
X58409Y24114D01*
X57622Y20965D02*
Y24114D01*
X60378Y20965D02*
Y24114D01*
X59591D02*
X60378D01*
X59591Y20965D02*
Y24114D01*
X62347Y20965D02*
Y24114D01*
X61559D02*
X62347D01*
X61559Y20965D02*
Y24114D01*
X64315Y20965D02*
Y24114D01*
X63528Y24114D02*
X64315Y24114D01*
X63528Y20965D02*
Y24114D01*
X65496Y20965D02*
Y24114D01*
X66284Y24114D01*
X66283Y20965D02*
X66284Y24114D01*
X54472Y20965D02*
Y24114D01*
X53685Y24114D02*
X54472Y24114D01*
X53685Y20965D02*
Y24114D01*
X50535Y20965D02*
Y24114D01*
X49748Y24114D02*
X50535Y24114D01*
X49748Y20965D02*
Y24114D01*
X46598Y20965D02*
Y24114D01*
X45811D02*
X46598D01*
X45811Y20965D02*
X45811Y24114D01*
X40693Y20965D02*
Y24114D01*
X39906Y24114D02*
X40693Y24114D01*
X39906Y20965D02*
Y24114D01*
X36756Y20965D02*
Y24114D01*
X35969D02*
X36756D01*
X35969Y20965D02*
X35969Y24114D01*
X32819D02*
X32819Y20965D01*
X32032Y24114D02*
X32819D01*
X32032Y20965D02*
Y24114D01*
X20221Y20965D02*
Y24114D01*
X21008Y24114D01*
X21008Y20965D02*
X21008Y24114D01*
X22976Y20965D02*
Y24114D01*
X22189Y24114D02*
X22976Y24114D01*
X22189Y20965D02*
Y24114D01*
X24945Y20965D02*
Y24114D01*
X24158D02*
X24945D01*
X24158Y20965D02*
Y24114D01*
X26913Y20965D02*
Y24114D01*
X26126D02*
X26913D01*
X26126Y20965D02*
X26126Y24114D01*
X28882Y20965D02*
X28882Y24114D01*
X28095Y24114D02*
X28882Y24114D01*
X28095Y20965D02*
Y24114D01*
X30850Y20965D02*
Y24114D01*
X30063D02*
X30850D01*
X30063Y20965D02*
Y24114D01*
X34787Y20965D02*
Y24114D01*
X34000Y24114D02*
X34787Y24114D01*
X34000Y20965D02*
Y24114D01*
X38724Y20965D02*
X38724Y24114D01*
X37937Y24114D02*
X38724Y24114D01*
X37937Y20965D02*
Y24114D01*
X42661Y24114D02*
X42661Y20965D01*
X41874Y24114D02*
X42661D01*
X41874Y20965D02*
Y24114D01*
X68252Y20965D02*
X68252Y24114D01*
X67465Y24114D02*
X68252Y24114D01*
X67465Y20965D02*
Y24114D01*
X71402Y20965D02*
Y24114D01*
X72189D01*
X72189Y20965D01*
X74157Y20965D02*
Y24114D01*
X73370D02*
X74157D01*
X73370Y20965D02*
X73370Y24114D01*
X79276Y20965D02*
Y24114D01*
X80063Y24114D01*
Y20965D02*
Y24114D01*
X82031Y20965D02*
Y24114D01*
X81244Y24114D02*
X82031Y24114D01*
X81244Y20965D02*
Y24114D01*
X83213Y20965D02*
Y24114D01*
X84000Y24114D01*
X84000Y20965D02*
X84000Y24114D01*
X87150Y20965D02*
Y24114D01*
X87937Y24114D01*
Y20965D02*
Y24114D01*
X95811Y20965D02*
Y24114D01*
X95024D02*
X95811D01*
X95024Y20965D02*
X95024Y24114D01*
X91874D02*
X91874Y20965D01*
X91087Y24114D02*
X91874Y24114D01*
X91087Y20965D02*
Y24114D01*
X93055Y20965D02*
X93055Y24114D01*
X93842Y24114D01*
Y20965D02*
Y24114D01*
X96992Y24114D02*
X96992Y20965D01*
X96992Y24114D02*
X97779Y24114D01*
Y20965D02*
Y24114D01*
X9394Y20965D02*
X9394Y9154D01*
X110969Y4035D02*
Y9154D01*
X108606Y9154D02*
X110969Y9154D01*
X108606Y9154D02*
Y20965D01*
X7032Y9154D02*
X9394Y9154D01*
X7032Y4035D02*
Y9154D01*
Y4035D02*
X110968Y4035D01*
X9394Y20965D02*
X108606Y20965D01*
X141123Y427774D02*
X143746Y421637D01*
X145156Y416893D02*
X145387Y404690D01*
X72789Y421637D02*
X75412Y427774D01*
X71148Y404690D02*
X71379Y416893D01*
X77008Y346735D02*
X139527D01*
X77008D02*
X77008Y432720D01*
X139527D01*
X139527Y346735D02*
X139527Y432720D01*
X57744Y433087D02*
X57744Y431906D01*
X64043Y431906D02*
Y433087D01*
X61287Y431906D02*
X64043D01*
X61327Y433086D02*
X64043Y433087D01*
X57744Y431906D02*
X60106Y431906D01*
X10894D02*
X13256Y431906D01*
Y433087D01*
X57744D01*
X6957Y433087D02*
X9673Y433086D01*
X6957Y431906D02*
X9713D01*
X6957D02*
Y433087D01*
X9713Y377969D02*
X61287D01*
Y431906D01*
X9713Y377969D02*
Y431906D01*
X152972Y385610D02*
X212028D01*
X152972Y433445D02*
X152973Y385610D01*
X212028Y433445D02*
X212028Y385610D01*
X152972Y433445D02*
X212028D01*
X202468Y351677D02*
X206209Y347937D01*
X194791Y351677D02*
X206209D01*
X194791Y345378D02*
Y351677D01*
Y345378D02*
X206209D01*
Y351677D01*
X202630Y330972D02*
X206370D01*
X202630Y324083D02*
X206370D01*
Y330972D01*
X202630Y324083D02*
Y330972D01*
X82433Y294610D02*
X86567D01*
X82433Y292445D02*
X86567D01*
X82433D02*
X82433Y294610D01*
X86567Y292445D02*
X86567Y294610D01*
X62311Y252244D02*
X88689Y252244D01*
X62311Y266811D02*
X88689D01*
X62311Y252244D02*
X62311Y266811D01*
X88689Y252244D02*
Y266811D01*
X14945Y44657D02*
Y48398D01*
X8055Y44657D02*
Y48398D01*
Y44657D02*
X14945D01*
X8055Y48398D02*
X14945D01*
X86567Y297445D02*
X86567Y299610D01*
X82433Y297445D02*
X82433Y299610D01*
X82433Y297445D02*
X86567D01*
X82433Y299610D02*
X86567D01*
X38433Y342445D02*
X42567D01*
X38433Y344610D02*
X42567D01*
X42567Y342445D02*
X42567Y344610D01*
X38433Y342445D02*
X38433Y344610D01*
X51350Y349496D02*
X55090Y353236D01*
X51350Y341819D02*
Y353236D01*
Y341819D02*
X57650D01*
Y353236D01*
X51350D02*
X57650D01*
X51555Y338898D02*
X58445D01*
X51555Y335157D02*
X58445D01*
X51555D02*
Y338898D01*
X58445Y335157D02*
Y338898D01*
X190417Y353461D02*
Y357594D01*
X192583Y353461D02*
Y357594D01*
X190417Y353461D02*
X192583Y353461D01*
X190417Y357594D02*
X192583Y357594D01*
X205630Y371083D02*
Y377972D01*
X209370Y371083D02*
Y377972D01*
X205630Y371083D02*
X209370D01*
X205630Y377972D02*
X209370D01*
X155917Y354961D02*
Y359095D01*
X158083Y354961D02*
Y359095D01*
X155917Y354961D02*
X158083Y354961D01*
X155917Y359095D02*
X158083Y359095D01*
M02*
