G04*
G04 #@! TF.GenerationSoftware,Altium Limited,Altium Designer,21.3.2 (30)*
G04*
G04 Layer_Color=8388736*
%FSLAX25Y25*%
%MOIN*%
G70*
G04*
G04 #@! TF.SameCoordinates,97996B78-1690-4D19-8AB1-FF8F13014A98*
G04*
G04*
G04 #@! TF.FilePolarity,Negative*
G04*
G01*
G75*
%ADD33R,0.01981X0.05524*%
%ADD34R,0.11430X0.12611*%
%ADD35R,0.01587X0.03418*%
%ADD36R,0.02375X0.03418*%
%ADD37R,0.01902X0.11036*%
%ADD38R,0.03162X0.05721*%
%ADD39R,0.04343X0.03950*%
%ADD40R,0.02572X0.06706*%
%ADD41R,0.05100X0.05000*%
%ADD42R,0.02965X0.03359*%
%ADD43R,0.04737X0.10249*%
%ADD44R,0.13792X0.10249*%
%ADD45R,0.03950X0.04343*%
%ADD46R,0.05721X0.03162*%
%ADD47R,0.03359X0.02965*%
%ADD48R,0.05000X0.05100*%
%ADD49C,0.06312*%
G04:AMPARAMS|DCode=50|XSize=63.12mil|YSize=63.12mil|CornerRadius=17.78mil|HoleSize=0mil|Usage=FLASHONLY|Rotation=0.000|XOffset=0mil|YOffset=0mil|HoleType=Round|Shape=RoundedRectangle|*
%AMROUNDEDRECTD50*
21,1,0.06312,0.02756,0,0,0.0*
21,1,0.02756,0.06312,0,0,0.0*
1,1,0.03556,0.01378,-0.01378*
1,1,0.03556,-0.01378,-0.01378*
1,1,0.03556,-0.01378,0.01378*
1,1,0.03556,0.01378,0.01378*
%
%ADD50ROUNDEDRECTD50*%
%ADD51C,0.13595*%
%ADD52C,0.06784*%
%ADD53C,0.10249*%
%ADD54C,0.06391*%
%ADD55C,0.14383*%
%ADD56O,0.06706X0.13792*%
%ADD57O,0.06706X0.11430*%
%ADD58C,0.03556*%
%ADD59C,0.04146*%
%ADD60O,0.04343X0.04737*%
%ADD61C,0.04737*%
%ADD62O,0.12611X0.04737*%
%ADD63C,0.06706*%
%ADD64R,0.06706X0.06706*%
%ADD65R,0.06706X0.06706*%
%ADD66O,0.79540X0.28359*%
D33*
X97386Y22579D02*
D03*
X95417D02*
D03*
X93449D02*
D03*
X91480D02*
D03*
X89512D02*
D03*
X85575D02*
D03*
X79669Y22579D02*
D03*
X77701D02*
D03*
X71795Y22579D02*
D03*
X69827D02*
D03*
X65890D02*
D03*
X59984Y22579D02*
D03*
X58016Y22579D02*
D03*
X52110D02*
D03*
X50142Y22579D02*
D03*
X44236Y22579D02*
D03*
X42268D02*
D03*
X36362D02*
D03*
X34394D02*
D03*
X32425Y22579D02*
D03*
X30457D02*
D03*
X20614Y22579D02*
D03*
X22583D02*
D03*
X24551Y22579D02*
D03*
X26520D02*
D03*
X28488D02*
D03*
X38331D02*
D03*
X40299D02*
D03*
X46205Y22579D02*
D03*
X48173D02*
D03*
X54079D02*
D03*
X56047D02*
D03*
X61953D02*
D03*
X63921D02*
D03*
X67858D02*
D03*
X73764Y22579D02*
D03*
X75732D02*
D03*
X81638Y22579D02*
D03*
X83606D02*
D03*
X87543D02*
D03*
D34*
X13016Y15256D02*
D03*
X104984Y15256D02*
D03*
D35*
X140405Y285436D02*
D03*
X138437Y285436D02*
D03*
X134500D02*
D03*
X132531Y285436D02*
D03*
X132531Y282028D02*
D03*
X134500Y282028D02*
D03*
X138437D02*
D03*
X140405Y282028D02*
D03*
X39437Y366232D02*
D03*
X37468Y366232D02*
D03*
X33531D02*
D03*
X31563Y366232D02*
D03*
X31563Y362823D02*
D03*
X33531D02*
D03*
X37468D02*
D03*
X39437Y362823D02*
D03*
X189716Y375811D02*
D03*
X191685Y375811D02*
D03*
X195622D02*
D03*
X197590D02*
D03*
X197590Y372402D02*
D03*
X195622Y372402D02*
D03*
X191685D02*
D03*
X189717Y372402D02*
D03*
X152937Y281823D02*
D03*
X150969Y281823D02*
D03*
X147031D02*
D03*
X145063D02*
D03*
X145063Y285232D02*
D03*
X147031Y285232D02*
D03*
X150969D02*
D03*
X152937Y285232D02*
D03*
X165779Y375811D02*
D03*
X167748Y375811D02*
D03*
X171685D02*
D03*
X173653D02*
D03*
X173653Y372402D02*
D03*
X171685Y372402D02*
D03*
X167748D02*
D03*
X165779Y372403D02*
D03*
X177779Y375811D02*
D03*
X179748Y375811D02*
D03*
X183685Y375811D02*
D03*
X185653D02*
D03*
X185653Y372402D02*
D03*
X183685Y372402D02*
D03*
X179748D02*
D03*
X177779Y372403D02*
D03*
D36*
X136469Y285436D02*
D03*
X136469Y282028D02*
D03*
X35500Y366232D02*
D03*
Y362823D02*
D03*
X193654Y375811D02*
D03*
Y372402D02*
D03*
X149000Y281823D02*
D03*
Y285232D02*
D03*
X169717Y375811D02*
D03*
X169717Y372402D02*
D03*
X181717Y375811D02*
D03*
X181717Y372402D02*
D03*
D37*
X200217Y388563D02*
D03*
X198248D02*
D03*
X196280D02*
D03*
X194311D02*
D03*
X192342D02*
D03*
X190374Y388563D02*
D03*
X188406Y388563D02*
D03*
X186437D02*
D03*
X184468D02*
D03*
X182500D02*
D03*
X180532D02*
D03*
X178563D02*
D03*
X176594Y388563D02*
D03*
X174626D02*
D03*
X172658D02*
D03*
X170689Y388563D02*
D03*
X168720D02*
D03*
X166752Y388563D02*
D03*
X164784D02*
D03*
D38*
X204240Y343409D02*
D03*
X196760D02*
D03*
Y353646D02*
D03*
X200500D02*
D03*
X204240D02*
D03*
D39*
X204500Y330283D02*
D03*
Y324772D02*
D03*
X207500Y371772D02*
D03*
Y377284D02*
D03*
D40*
X34119Y332654D02*
D03*
X26441D02*
D03*
X23882D02*
D03*
X31560D02*
D03*
X29000D02*
D03*
D41*
X75500Y237472D02*
D03*
Y230528D02*
D03*
X85000D02*
D03*
Y237472D02*
D03*
D42*
X82531Y293528D02*
D03*
X86468Y293528D02*
D03*
Y298528D02*
D03*
X82531Y298528D02*
D03*
X42469Y343528D02*
D03*
X38532Y343528D02*
D03*
D43*
X66445Y248110D02*
D03*
X75500Y248110D02*
D03*
X84555Y248110D02*
D03*
D44*
X75500Y270945D02*
D03*
D45*
X14256Y46528D02*
D03*
X8744D02*
D03*
X52244Y337028D02*
D03*
X57756D02*
D03*
D46*
X59618Y351268D02*
D03*
Y343787D02*
D03*
X49382D02*
D03*
Y347528D02*
D03*
Y351268D02*
D03*
D47*
X191500Y353559D02*
D03*
X191500Y357496D02*
D03*
X157000Y355059D02*
D03*
X157000Y358996D02*
D03*
D48*
X49555Y368028D02*
D03*
X56500D02*
D03*
D49*
X85768Y364846D02*
D03*
X95768Y364846D02*
D03*
X105768D02*
D03*
X115768Y364846D02*
D03*
X125768D02*
D03*
X90768Y354846D02*
D03*
X100768D02*
D03*
X110768D02*
D03*
X120768D02*
D03*
D50*
X130768D02*
D03*
D51*
X85768Y389846D02*
D03*
X130768D02*
D03*
D52*
X124370Y409137D02*
D03*
X92165D02*
D03*
X134370D02*
D03*
X82165D02*
D03*
D53*
X77776Y377838D02*
D03*
X138760Y377838D02*
D03*
D54*
X31563Y381945D02*
D03*
X39437D02*
D03*
X21721D02*
D03*
X49279D02*
D03*
D55*
X61366Y392614D02*
D03*
X9634D02*
D03*
D56*
X211043Y391713D02*
D03*
X153957D02*
D03*
D57*
X211043Y415335D02*
D03*
X153957Y415335D02*
D03*
D58*
X40516Y327536D02*
D03*
D59*
X17484D02*
D03*
D60*
X37465Y331670D02*
D03*
D61*
X20535D02*
D03*
D62*
X29000Y323402D02*
D03*
D63*
X20500Y290528D02*
D03*
X108500Y229528D02*
D03*
X118500D02*
D03*
X128500D02*
D03*
X106000Y291028D02*
D03*
Y281028D02*
D03*
Y271028D02*
D03*
Y261028D02*
D03*
X49500Y301028D02*
D03*
Y291028D02*
D03*
Y281028D02*
D03*
D64*
X20500Y300528D02*
D03*
X106000Y301028D02*
D03*
X49500Y271028D02*
D03*
D65*
X98500Y229528D02*
D03*
D66*
X108268Y324803D02*
D03*
M02*
