G04*
G04 #@! TF.GenerationSoftware,Altium Limited,Altium Designer,21.3.2 (30)*
G04*
G04 Layer_Color=255*
%FSLAX25Y25*%
%MOIN*%
G70*
G04*
G04 #@! TF.SameCoordinates,97996B78-1690-4D19-8AB1-FF8F13014A98*
G04*
G04*
G04 #@! TF.FilePolarity,Positive*
G04*
G01*
G75*
%ADD70C,0.05512*%
G04:AMPARAMS|DCode=71|XSize=55.12mil|YSize=55.12mil|CornerRadius=13.78mil|HoleSize=0mil|Usage=FLASHONLY|Rotation=0.000|XOffset=0mil|YOffset=0mil|HoleType=Round|Shape=RoundedRectangle|*
%AMROUNDEDRECTD71*
21,1,0.05512,0.02756,0,0,0.0*
21,1,0.02756,0.05512,0,0,0.0*
1,1,0.02756,0.01378,-0.01378*
1,1,0.02756,-0.01378,-0.01378*
1,1,0.02756,-0.01378,0.01378*
1,1,0.02756,0.01378,0.01378*
%
%ADD71ROUNDEDRECTD71*%
%ADD72C,0.12795*%
%ADD73C,0.05984*%
%ADD74C,0.09449*%
%ADD75C,0.05591*%
%ADD76C,0.13583*%
%ADD77O,0.05906X0.12992*%
%ADD78O,0.05906X0.10630*%
%ADD79C,0.02756*%
%ADD80C,0.03346*%
%ADD81O,0.03543X0.03937*%
%ADD82C,0.03937*%
%ADD83O,0.11811X0.03937*%
%ADD84C,0.05906*%
%ADD85R,0.05906X0.05906*%
%ADD86R,0.05906X0.05906*%
%ADD87O,0.78740X0.27559*%
D70*
X85768Y364846D02*
D03*
X95768Y364846D02*
D03*
X105768D02*
D03*
X115768Y364846D02*
D03*
X125768D02*
D03*
X90768Y354846D02*
D03*
X100768D02*
D03*
X110768D02*
D03*
X120768D02*
D03*
D71*
X130768D02*
D03*
D72*
X85768Y389846D02*
D03*
X130768D02*
D03*
D73*
X124370Y409137D02*
D03*
X92165D02*
D03*
X134370D02*
D03*
X82165D02*
D03*
D74*
X77776Y377838D02*
D03*
X138760Y377838D02*
D03*
D75*
X31563Y381945D02*
D03*
X39437D02*
D03*
X21721D02*
D03*
X49279D02*
D03*
D76*
X61366Y392614D02*
D03*
X9634D02*
D03*
D77*
X211043Y391713D02*
D03*
X153957D02*
D03*
D78*
X211043Y415335D02*
D03*
X153957Y415335D02*
D03*
D79*
X40516Y327536D02*
D03*
D80*
X17484D02*
D03*
D81*
X37465Y331670D02*
D03*
D82*
X20535D02*
D03*
D83*
X29000Y323402D02*
D03*
D84*
X20500Y290528D02*
D03*
X108500Y229528D02*
D03*
X118500D02*
D03*
X128500D02*
D03*
X106000Y291028D02*
D03*
Y281028D02*
D03*
Y271028D02*
D03*
Y261028D02*
D03*
X49500Y301028D02*
D03*
Y291028D02*
D03*
Y281028D02*
D03*
D85*
X20500Y300528D02*
D03*
X106000Y301028D02*
D03*
X49500Y271028D02*
D03*
D86*
X98500Y229528D02*
D03*
D87*
X108268Y324803D02*
D03*
M02*
