G04*
G04 #@! TF.GenerationSoftware,Altium Limited,Altium Designer,21.3.2 (30)*
G04*
G04 Layer_Color=8421504*
%FSLAX25Y25*%
%MOIN*%
G70*
G04*
G04 #@! TF.SameCoordinates,97996B78-1690-4D19-8AB1-FF8F13014A98*
G04*
G04*
G04 #@! TF.FilePolarity,Positive*
G04*
G01*
G75*
%ADD16C,0.01968*%
%ADD17R,0.01181X0.04724*%
%ADD18R,0.10630X0.11811*%
%ADD19R,0.00787X0.02618*%
%ADD20R,0.01575X0.02618*%
%ADD21R,0.01102X0.10236*%
%ADD22R,0.02362X0.04921*%
%ADD23R,0.03543X0.03150*%
%ADD24R,0.01772X0.05906*%
%ADD25R,0.04300X0.04200*%
%ADD26R,0.02165X0.02559*%
%ADD27R,0.03937X0.09449*%
%ADD28R,0.12992X0.09449*%
%ADD29R,0.03150X0.03543*%
%ADD30R,0.04921X0.02362*%
%ADD31R,0.02559X0.02165*%
%ADD32R,0.04200X0.04300*%
G36*
X174048Y377120D02*
Y374503D01*
X173260D01*
Y374504D01*
X173259D01*
X173256Y377120D01*
X174048Y377120D01*
D02*
G37*
G36*
X172080Y374503D02*
X171292D01*
X171292Y374504D01*
X171291D01*
X171288Y377120D01*
X172080Y377120D01*
X172080Y374503D01*
D02*
G37*
G36*
X168143D02*
X167355D01*
X167355Y374504D01*
X167354D01*
X167351Y377120D01*
X168143Y377120D01*
X168143Y374503D01*
D02*
G37*
G36*
X186048Y377120D02*
Y374503D01*
X185260D01*
X185260Y374504D01*
X185259Y374504D01*
X185256Y377120D01*
X186048Y377120D01*
D02*
G37*
G36*
X184080Y374503D02*
X183292D01*
X183292Y374504D01*
X183291Y374504D01*
X183288Y377120D01*
X184080D01*
Y374503D01*
D02*
G37*
G36*
X180143D02*
X179355D01*
Y374504D01*
X179354Y374504D01*
X179351Y377120D01*
X180143Y377120D01*
Y374503D01*
D02*
G37*
G36*
X197985Y374502D02*
X197197D01*
Y374503D01*
X197196D01*
X197193Y377119D01*
X197985D01*
Y374502D01*
D02*
G37*
G36*
X192080D02*
X191292D01*
X191292Y374503D01*
X191291D01*
X191288Y377119D01*
X192080D01*
X192080Y374502D01*
D02*
G37*
G36*
X196017Y374502D02*
X195229D01*
X195229Y374503D01*
X195228D01*
X195225Y377119D01*
X196017D01*
X196017Y374502D01*
D02*
G37*
G36*
X166174D02*
X165386Y374502D01*
Y374503D01*
X165385D01*
X165382Y377119D01*
X166174Y377119D01*
Y374502D01*
D02*
G37*
G36*
X178174Y374502D02*
X177386Y374502D01*
X177386Y374503D01*
X177385D01*
X177382Y377119D01*
X178174D01*
X178174Y374502D01*
D02*
G37*
G36*
X190111Y374502D02*
X189323Y374502D01*
X189323Y374503D01*
X189322D01*
X189319Y377119D01*
X190111D01*
Y374502D01*
D02*
G37*
G36*
X182503Y374501D02*
X180930D01*
Y374501D01*
X180930Y377120D01*
X182503D01*
X182503Y374501D01*
D02*
G37*
G36*
X170503Y374501D02*
X168930D01*
Y374501D01*
X168930Y377120D01*
X170503D01*
X170503Y374501D01*
D02*
G37*
G36*
X194440Y374501D02*
X192867D01*
Y374500D01*
X192867Y374501D01*
X192867D01*
X192867Y377120D01*
X194440D01*
X194440Y374501D01*
D02*
G37*
G36*
X174048Y373712D02*
Y371095D01*
X173260D01*
Y371096D01*
X173259D01*
X173256Y373712D01*
X174048Y373712D01*
D02*
G37*
G36*
X172080Y371095D02*
X171292D01*
X171292Y371096D01*
X171291D01*
X171288Y373712D01*
X172080Y373712D01*
X172080Y371095D01*
D02*
G37*
G36*
X168143D02*
X167355D01*
X167355Y371096D01*
X167354D01*
X167351Y373712D01*
X168143Y373712D01*
X168143Y371095D01*
D02*
G37*
G36*
X186048Y373712D02*
Y371095D01*
X185260D01*
X185260Y371096D01*
X185259Y371096D01*
X185256Y373712D01*
X186048Y373712D01*
D02*
G37*
G36*
X184080Y371095D02*
X183292D01*
Y371096D01*
X183291Y371096D01*
X183288Y373712D01*
X184080Y373712D01*
Y371095D01*
D02*
G37*
G36*
X180143D02*
X179355D01*
Y371096D01*
X179354Y371096D01*
X179351Y373712D01*
X180143Y373712D01*
Y371095D01*
D02*
G37*
G36*
X197985Y371094D02*
X197197D01*
Y371095D01*
X197196D01*
X197193Y373711D01*
X197985D01*
Y371094D01*
D02*
G37*
G36*
X196017D02*
X195229D01*
X195229Y371095D01*
X195228D01*
X195225Y373711D01*
X196017D01*
X196017Y371094D01*
D02*
G37*
G36*
X192080D02*
X191292D01*
X191292Y371095D01*
X191291D01*
X191288Y373711D01*
X192080D01*
X192080Y371094D01*
D02*
G37*
G36*
X178174D02*
X177386D01*
X177386Y371095D01*
X177385D01*
X177382Y373711D01*
X178174D01*
Y371094D01*
D02*
G37*
G36*
X166174D02*
X165386D01*
Y371095D01*
X165385D01*
X165382Y373711D01*
X166174Y373711D01*
Y371094D01*
D02*
G37*
G36*
X190111Y371094D02*
X189323D01*
X189323Y371095D01*
X189322D01*
X189319Y373711D01*
X190111D01*
X190111Y371094D01*
D02*
G37*
G36*
X182503Y371093D02*
X180930D01*
X180930Y371093D01*
X180930Y373712D01*
X182503Y373712D01*
Y371093D01*
D02*
G37*
G36*
X170503Y371093D02*
X168930D01*
Y371093D01*
X168930Y373712D01*
X170503D01*
X170503Y371093D01*
D02*
G37*
G36*
X194440Y371093D02*
X192867D01*
X192867Y371093D01*
X192867Y373712D01*
X194440D01*
X194440Y371093D01*
D02*
G37*
G36*
X39830Y367539D02*
X39832D01*
X39834Y364923D01*
X39042D01*
X39042Y367540D01*
X39830D01*
X39830Y367539D01*
D02*
G37*
G36*
X37861Y367539D02*
X37863D01*
X37865Y364923D01*
X37073D01*
X37073Y367540D01*
X37861D01*
X37861Y367539D01*
D02*
G37*
G36*
X33924D02*
X33925D01*
X33928Y364923D01*
X33136D01*
X33136Y367540D01*
X33924D01*
X33924Y367539D01*
D02*
G37*
G36*
X31956D02*
X31958D01*
X31960Y364923D01*
X31168D01*
Y367540D01*
X31956D01*
Y367539D01*
D02*
G37*
G36*
X36287Y364922D02*
X34713D01*
X34713Y367541D01*
X36286D01*
X36286Y367542D01*
X36287Y364922D01*
D02*
G37*
G36*
X36287Y364133D02*
X36287D01*
Y364134D01*
X36287Y364133D01*
D02*
G37*
G36*
X39830Y364132D02*
X39830Y364131D01*
X39832D01*
X39834Y361515D01*
X39042D01*
Y364132D01*
X39830Y364132D01*
D02*
G37*
G36*
X37861Y364131D02*
X37863D01*
X37865Y361515D01*
X37073D01*
X37073Y364132D01*
X37861D01*
X37861Y364131D01*
D02*
G37*
G36*
X33924D02*
X33926D01*
X33928Y361515D01*
X33136D01*
X33136Y364132D01*
X33924D01*
X33924Y364131D01*
D02*
G37*
G36*
X31956D02*
X31958D01*
X31960Y361515D01*
X31168D01*
Y364132D01*
X31956D01*
Y364131D01*
D02*
G37*
G36*
X36287Y361514D02*
X34713D01*
X34713Y364133D01*
X36287D01*
X36287Y361514D01*
D02*
G37*
G36*
X35004Y329696D02*
X33232D01*
Y335602D01*
X35004D01*
Y329696D01*
D02*
G37*
G36*
X32445D02*
X30673D01*
Y335602D01*
X32445D01*
Y329696D01*
D02*
G37*
G36*
X29886D02*
X28114D01*
Y335602D01*
X29886D01*
Y329696D01*
D02*
G37*
G36*
X27327D02*
X25555D01*
Y335602D01*
X27327D01*
Y329696D01*
D02*
G37*
G36*
X24768D02*
X22996D01*
Y335602D01*
X24768D01*
Y329696D01*
D02*
G37*
G36*
X34064Y325108D02*
X34584Y324587D01*
X34866Y323907D01*
Y323539D01*
Y323343D01*
Y323224D01*
Y322864D01*
X34590Y322199D01*
X34081Y321689D01*
X33415Y321413D01*
X24514D01*
X23863Y321683D01*
X23364Y322181D01*
X23095Y322833D01*
Y323185D01*
Y323303D01*
Y323500D01*
Y323868D01*
X23376Y324548D01*
X23897Y325069D01*
X24577Y325350D01*
X24945D01*
Y325358D01*
X24951Y325373D01*
X24962Y325384D01*
X24976Y325390D01*
X33384D01*
X34064Y325108D01*
D02*
G37*
G36*
X140799Y286743D02*
X140800D01*
X140803Y284127D01*
X140011D01*
Y286744D01*
X140799D01*
X140799Y286743D01*
D02*
G37*
G36*
X138830Y286743D02*
X138831D01*
X138834Y284127D01*
X138042Y284127D01*
X138042Y286744D01*
X138830D01*
X138830Y286743D01*
D02*
G37*
G36*
X134893D02*
X134894D01*
X134897Y284127D01*
X134105Y284127D01*
X134105Y286744D01*
X134893D01*
X134893Y286743D01*
D02*
G37*
G36*
X132925D02*
X132926Y286743D01*
X132929Y284127D01*
X132137Y284127D01*
X132137Y286744D01*
X132925D01*
Y286743D01*
D02*
G37*
G36*
X137255Y286746D02*
X137255D01*
X137255Y284126D01*
X135682D01*
X135682Y286746D01*
X137255D01*
Y286746D01*
X137255Y286746D01*
D02*
G37*
G36*
X153331Y286539D02*
X153331D01*
X153334Y283923D01*
X152542D01*
Y286540D01*
X153331D01*
X153331Y286539D01*
D02*
G37*
G36*
X151362Y286539D02*
X151363Y286539D01*
X151365Y283923D01*
X150574D01*
Y286540D01*
X151362D01*
Y286539D01*
D02*
G37*
G36*
X147424D02*
X147425Y286539D01*
X147428Y283923D01*
X146636D01*
Y286540D01*
X147424D01*
Y286539D01*
D02*
G37*
G36*
X145457D02*
X145457Y286539D01*
X145460Y283923D01*
X144668D01*
Y286540D01*
X145457D01*
Y286539D01*
D02*
G37*
G36*
X149787Y283922D02*
X148213D01*
Y286541D01*
X149786D01*
Y286542D01*
X149787Y283922D01*
D02*
G37*
G36*
X140799Y283336D02*
X140799Y283335D01*
X140800D01*
X140803Y280719D01*
X140011D01*
Y283336D01*
X140799Y283336D01*
D02*
G37*
G36*
X134893Y283335D02*
X134894Y283335D01*
X134897Y280719D01*
X134105D01*
X134105Y283336D01*
X134893D01*
X134893Y283335D01*
D02*
G37*
G36*
X138830Y283335D02*
X138831D01*
X138834Y280719D01*
X138042Y280719D01*
X138042Y283336D01*
X138830D01*
X138830Y283335D01*
D02*
G37*
G36*
X132925D02*
X132926Y283335D01*
X132929Y280719D01*
X132137Y280719D01*
X132137Y283336D01*
X132925D01*
Y283335D01*
D02*
G37*
G36*
X137256Y280718D02*
X135682Y280718D01*
X135682Y283337D01*
X137255D01*
Y283338D01*
X137256Y280718D01*
D02*
G37*
G36*
X153331Y283132D02*
X153331Y283131D01*
X153331D01*
X153334Y280515D01*
X152542D01*
Y283132D01*
X153331Y283132D01*
D02*
G37*
G36*
X145457Y283131D02*
X145457Y283131D01*
X145460Y280515D01*
X144668D01*
Y283132D01*
X145457D01*
Y283131D01*
D02*
G37*
G36*
X151362D02*
X151363Y283131D01*
X151365Y280515D01*
X150574Y280515D01*
Y283132D01*
X151362D01*
Y283131D01*
D02*
G37*
G36*
X147424D02*
X147425Y283131D01*
X147428Y280515D01*
X146636Y280515D01*
Y283132D01*
X147424D01*
X147424Y283131D01*
D02*
G37*
G36*
X149787Y280514D02*
X148213D01*
X148213Y283133D01*
X149787D01*
Y283134D01*
X149787Y280514D01*
D02*
G37*
D16*
X21520Y331670D02*
G03*
X21520Y331670I-984J0D01*
G01*
X38449D02*
G03*
X38449Y331670I-984J0D01*
G01*
D17*
X97386Y22579D02*
D03*
X95417D02*
D03*
X93449D02*
D03*
X91480D02*
D03*
X89512D02*
D03*
X85575D02*
D03*
X79669Y22579D02*
D03*
X77701D02*
D03*
X71795Y22579D02*
D03*
X69827D02*
D03*
X65890D02*
D03*
X59984Y22579D02*
D03*
X58016Y22579D02*
D03*
X52110D02*
D03*
X50142Y22579D02*
D03*
X44236Y22579D02*
D03*
X42268D02*
D03*
X36362D02*
D03*
X34394D02*
D03*
X32425Y22579D02*
D03*
X30457D02*
D03*
X20614Y22579D02*
D03*
X22583D02*
D03*
X24551Y22579D02*
D03*
X26520D02*
D03*
X28488D02*
D03*
X38331D02*
D03*
X40299D02*
D03*
X46205Y22579D02*
D03*
X48173D02*
D03*
X54079D02*
D03*
X56047D02*
D03*
X61953D02*
D03*
X63921D02*
D03*
X67858D02*
D03*
X73764Y22579D02*
D03*
X75732D02*
D03*
X81638Y22579D02*
D03*
X83606D02*
D03*
X87543D02*
D03*
D18*
X13016Y15256D02*
D03*
X104984Y15256D02*
D03*
D19*
X140405Y285436D02*
D03*
X138437Y285436D02*
D03*
X134500D02*
D03*
X132531Y285436D02*
D03*
X132531Y282028D02*
D03*
X134500Y282028D02*
D03*
X138437D02*
D03*
X140405Y282028D02*
D03*
X39437Y366232D02*
D03*
X37468Y366232D02*
D03*
X33531D02*
D03*
X31563Y366232D02*
D03*
X31563Y362823D02*
D03*
X33531D02*
D03*
X37468D02*
D03*
X39437Y362823D02*
D03*
X189716Y375811D02*
D03*
X191685Y375811D02*
D03*
X195622D02*
D03*
X197590D02*
D03*
X197590Y372402D02*
D03*
X195622Y372402D02*
D03*
X191685D02*
D03*
X189717Y372402D02*
D03*
X152937Y281823D02*
D03*
X150969Y281823D02*
D03*
X147031D02*
D03*
X145063D02*
D03*
X145063Y285232D02*
D03*
X147031Y285232D02*
D03*
X150969D02*
D03*
X152937Y285232D02*
D03*
X165779Y375811D02*
D03*
X167748Y375811D02*
D03*
X171685D02*
D03*
X173653D02*
D03*
X173653Y372402D02*
D03*
X171685Y372402D02*
D03*
X167748D02*
D03*
X165779Y372403D02*
D03*
X177779Y375811D02*
D03*
X179748Y375811D02*
D03*
X183685Y375811D02*
D03*
X185653D02*
D03*
X185653Y372402D02*
D03*
X183685Y372402D02*
D03*
X179748D02*
D03*
X177779Y372403D02*
D03*
D20*
X136469Y285436D02*
D03*
X136469Y282028D02*
D03*
X35500Y366232D02*
D03*
Y362823D02*
D03*
X193654Y375811D02*
D03*
Y372402D02*
D03*
X149000Y281823D02*
D03*
Y285232D02*
D03*
X169717Y375811D02*
D03*
X169717Y372402D02*
D03*
X181717Y375811D02*
D03*
X181717Y372402D02*
D03*
D21*
X200217Y388563D02*
D03*
X198248D02*
D03*
X196280D02*
D03*
X194311D02*
D03*
X192342D02*
D03*
X190374Y388563D02*
D03*
X188406Y388563D02*
D03*
X186437D02*
D03*
X184468D02*
D03*
X182500D02*
D03*
X180532D02*
D03*
X178563D02*
D03*
X176594Y388563D02*
D03*
X174626D02*
D03*
X172658D02*
D03*
X170689Y388563D02*
D03*
X168720D02*
D03*
X166752Y388563D02*
D03*
X164784D02*
D03*
D22*
X204240Y343409D02*
D03*
X196760D02*
D03*
Y353646D02*
D03*
X200500D02*
D03*
X204240D02*
D03*
D23*
X204500Y330283D02*
D03*
Y324772D02*
D03*
X207500Y371772D02*
D03*
Y377284D02*
D03*
D24*
X34119Y332654D02*
D03*
X26441D02*
D03*
X23882D02*
D03*
X31560D02*
D03*
X29000D02*
D03*
D25*
X75500Y237472D02*
D03*
Y230528D02*
D03*
X85000D02*
D03*
Y237472D02*
D03*
D26*
X82531Y293528D02*
D03*
X86468Y293528D02*
D03*
Y298528D02*
D03*
X82531Y298528D02*
D03*
X42469Y343528D02*
D03*
X38532Y343528D02*
D03*
D27*
X66445Y248110D02*
D03*
X75500Y248110D02*
D03*
X84555Y248110D02*
D03*
D28*
X75500Y270945D02*
D03*
D29*
X14256Y46528D02*
D03*
X8744D02*
D03*
X52244Y337028D02*
D03*
X57756D02*
D03*
D30*
X59618Y351268D02*
D03*
Y343787D02*
D03*
X49382D02*
D03*
Y347528D02*
D03*
Y351268D02*
D03*
D31*
X191500Y353559D02*
D03*
X191500Y357496D02*
D03*
X157000Y355059D02*
D03*
X157000Y358996D02*
D03*
D32*
X49555Y368028D02*
D03*
X56500D02*
D03*
M02*
