G04*
G04 #@! TF.GenerationSoftware,Altium Limited,Altium Designer,21.3.2 (30)*
G04*
G04 Layer_Physical_Order=2*
G04 Layer_Color=16711680*
%FSLAX25Y25*%
%MOIN*%
G70*
G04*
G04 #@! TF.SameCoordinates,97996B78-1690-4D19-8AB1-FF8F13014A98*
G04*
G04*
G04 #@! TF.FilePolarity,Positive*
G04*
G01*
G75*
%ADD10C,0.00787*%
%ADD16C,0.01968*%
%ADD67C,0.00700*%
%ADD70C,0.05512*%
G04:AMPARAMS|DCode=71|XSize=55.12mil|YSize=55.12mil|CornerRadius=13.78mil|HoleSize=0mil|Usage=FLASHONLY|Rotation=0.000|XOffset=0mil|YOffset=0mil|HoleType=Round|Shape=RoundedRectangle|*
%AMROUNDEDRECTD71*
21,1,0.05512,0.02756,0,0,0.0*
21,1,0.02756,0.05512,0,0,0.0*
1,1,0.02756,0.01378,-0.01378*
1,1,0.02756,-0.01378,-0.01378*
1,1,0.02756,-0.01378,0.01378*
1,1,0.02756,0.01378,0.01378*
%
%ADD71ROUNDEDRECTD71*%
%ADD72C,0.12795*%
%ADD73C,0.05984*%
%ADD74C,0.09449*%
%ADD75C,0.05591*%
%ADD76C,0.13583*%
%ADD77O,0.05906X0.12992*%
%ADD78O,0.05906X0.10630*%
%ADD79C,0.02756*%
%ADD80C,0.03346*%
%ADD81O,0.03543X0.03937*%
%ADD82C,0.03937*%
%ADD83O,0.11811X0.03937*%
%ADD84C,0.05906*%
%ADD85R,0.05906X0.05906*%
%ADD86R,0.05906X0.05906*%
%ADD87O,0.78740X0.27559*%
%ADD88C,0.01968*%
%ADD89C,0.01772*%
%ADD90R,0.10500X0.11500*%
%ADD91R,0.10000X0.13500*%
G36*
X207990Y420212D02*
X207591Y419690D01*
X207192Y418729D01*
X207056Y417697D01*
Y415835D01*
X211043D01*
Y415335D01*
X211543D01*
Y409052D01*
X212075Y409122D01*
X213037Y409520D01*
X213519Y409890D01*
X214019Y409643D01*
Y398586D01*
X213519Y398339D01*
X213037Y398709D01*
X212075Y399107D01*
X211543Y399177D01*
Y391713D01*
Y384248D01*
X212075Y384318D01*
X213037Y384717D01*
X213519Y385086D01*
X214019Y384840D01*
Y106848D01*
X118110D01*
X117147Y106656D01*
X116331Y106110D01*
X115785Y105294D01*
X115593Y104331D01*
Y2517D01*
X2517D01*
Y49986D01*
X2517Y50486D01*
X17459D01*
Y44028D01*
X17617Y43645D01*
X18000Y43486D01*
X28500D01*
X28883Y43645D01*
X29041Y44028D01*
Y55528D01*
Y60054D01*
X29541Y60261D01*
X29887Y59915D01*
X30168Y59727D01*
X30500Y59661D01*
X42697D01*
X43029Y59727D01*
X43310Y59915D01*
X200113Y216718D01*
X200301Y216999D01*
X200367Y217331D01*
Y366528D01*
X200301Y366859D01*
X200185Y367032D01*
X200143Y367144D01*
X200035Y367260D01*
X200007Y367294D01*
X199986Y367323D01*
X199984Y367326D01*
Y367823D01*
X199758Y368368D01*
X199341Y368786D01*
X198795Y369012D01*
X198205D01*
X197659Y368786D01*
X197242Y368368D01*
X197016Y367823D01*
Y367232D01*
X197242Y366687D01*
X197417Y366512D01*
X197210Y366012D01*
X197205D01*
X196659Y365786D01*
X196242Y365368D01*
X196016Y364823D01*
Y364232D01*
X196242Y363687D01*
X196382Y363546D01*
X196418Y363452D01*
X196469Y363399D01*
X196500Y363361D01*
X196526Y363323D01*
X196548Y363285D01*
X196566Y363247D01*
X196581Y363207D01*
X196592Y363165D01*
X196601Y363120D01*
X196607Y363071D01*
X196609Y362998D01*
X196633Y362945D01*
Y217387D01*
X41905Y62658D01*
X40817D01*
X40483Y63158D01*
X40554Y63331D01*
Y63921D01*
X40328Y64467D01*
X40326Y64468D01*
X40367Y64670D01*
Y68169D01*
X191113Y218915D01*
X191301Y219196D01*
X191367Y219528D01*
Y362945D01*
X191391Y362998D01*
X191393Y363071D01*
X191399Y363120D01*
X191408Y363165D01*
X191419Y363207D01*
X191434Y363247D01*
X191452Y363285D01*
X191474Y363323D01*
X191500Y363361D01*
X191531Y363399D01*
X191582Y363452D01*
X191618Y363546D01*
X191758Y363687D01*
X191984Y364232D01*
Y364823D01*
X191758Y365368D01*
X191341Y365786D01*
X190795Y366012D01*
X190727D01*
X190393Y366512D01*
X190484Y366732D01*
Y367323D01*
X190258Y367868D01*
X189841Y368286D01*
X189295Y368512D01*
X188705D01*
X188159Y368286D01*
X187742Y367868D01*
X187516Y367323D01*
Y366732D01*
X187550Y366651D01*
X187541Y366583D01*
X187553Y366540D01*
X187557Y366522D01*
X187608Y365738D01*
X187609Y365586D01*
X187633Y365528D01*
Y219886D01*
X73634Y105887D01*
X73258Y106187D01*
X73484Y106732D01*
Y107323D01*
X73258Y107868D01*
X72841Y108286D01*
X72310Y108506D01*
Y109949D01*
X72241Y110298D01*
X72043Y110594D01*
X70555Y112082D01*
X69911Y112726D01*
Y160864D01*
X70411Y161165D01*
X70705Y161043D01*
X71295D01*
X71841Y161269D01*
X72258Y161687D01*
X72654Y161430D01*
X72721Y161363D01*
X73267Y161137D01*
X73857D01*
X74403Y161363D01*
X74821Y161781D01*
X75046Y162326D01*
Y162917D01*
X74821Y163462D01*
X74403Y163880D01*
X73857Y164105D01*
X73660D01*
X73570Y164146D01*
X73512Y164148D01*
X73479Y164152D01*
X73446Y164159D01*
X73413Y164170D01*
X73378Y164184D01*
X73341Y164202D01*
X73302Y164227D01*
X73260Y164257D01*
X73215Y164294D01*
X73156Y164349D01*
X73103Y164369D01*
X72422Y165050D01*
X72127Y165247D01*
X71778Y165317D01*
X69557D01*
X69209Y165247D01*
X68913Y165050D01*
X67068Y163205D01*
X66871Y162909D01*
X66801Y162561D01*
Y111815D01*
X66871Y111466D01*
X67068Y111171D01*
X68356Y109883D01*
X68356Y109883D01*
X69200Y109039D01*
Y108512D01*
X68670Y108292D01*
X68252Y107874D01*
X68026Y107329D01*
Y106738D01*
X68252Y106193D01*
X68670Y105775D01*
X69215Y105549D01*
X69806D01*
X70351Y105775D01*
X70752Y106176D01*
X71159Y105769D01*
X71705Y105543D01*
X72295D01*
X72841Y105769D01*
X73140Y105393D01*
X35040Y67293D01*
X34522Y67225D01*
X34366Y67260D01*
X34341Y67286D01*
X33795Y67512D01*
X33205D01*
X32659Y67286D01*
X32519Y67145D01*
X32425Y67109D01*
X32372Y67059D01*
X32333Y67028D01*
X32296Y67001D01*
X32258Y66980D01*
X32219Y66962D01*
X32180Y66947D01*
X32138Y66935D01*
X32092Y66927D01*
X32043Y66921D01*
X31970Y66918D01*
X31917Y66894D01*
X31000D01*
X30668Y66828D01*
X30387Y66640D01*
X29541Y65794D01*
X29041Y66001D01*
Y290086D01*
X29000Y290185D01*
Y290293D01*
X28924Y290369D01*
X28883Y290468D01*
X28732Y290971D01*
X55144Y317383D01*
X55342Y317679D01*
X55411Y318028D01*
Y335486D01*
X71708D01*
X71938Y334986D01*
X70683Y333517D01*
X69468Y331534D01*
X68577Y329384D01*
X68034Y327122D01*
X67891Y325303D01*
X107768D01*
Y339628D01*
X82677D01*
X80358Y339446D01*
X78096Y338903D01*
X75947Y338013D01*
X73963Y336797D01*
X73541Y336437D01*
X73041Y336667D01*
Y342274D01*
X151760D01*
X151760Y342274D01*
X152339Y342389D01*
X152830Y342717D01*
X182127Y372014D01*
X202720D01*
X202987Y371748D01*
Y339154D01*
X202930Y339098D01*
X202847Y338974D01*
X202742Y338868D01*
X202685Y338731D01*
X202602Y338607D01*
X202573Y338460D01*
X202516Y338323D01*
Y338174D01*
X202487Y338028D01*
X202516Y337881D01*
Y337732D01*
X202573Y337595D01*
X202602Y337448D01*
X202685Y337325D01*
X202727Y337223D01*
Y335268D01*
X202756Y335121D01*
Y334973D01*
X202813Y334835D01*
X202842Y334689D01*
X202925Y334565D01*
X202982Y334427D01*
X203087Y334322D01*
X203170Y334198D01*
X203294Y334115D01*
X203399Y334009D01*
X203537Y333952D01*
X203661Y333870D01*
X203807Y333840D01*
X203945Y333784D01*
X204094D01*
X204240Y333754D01*
X204386Y333784D01*
X204535D01*
X204673Y333840D01*
X204819Y333870D01*
X204943Y333952D01*
X205081Y334009D01*
X205186Y334115D01*
X205310Y334198D01*
X205393Y334322D01*
X205499Y334427D01*
X205556Y334565D01*
X205638Y334689D01*
X205667Y334835D01*
X205724Y334973D01*
Y335121D01*
X205753Y335268D01*
Y337732D01*
X205898Y337948D01*
X206013Y338528D01*
X206013Y338528D01*
Y372374D01*
X205898Y372954D01*
X205570Y373445D01*
X205570Y373445D01*
X204417Y374598D01*
X203926Y374926D01*
X203347Y375041D01*
X203347Y375041D01*
X181500D01*
X181500Y375041D01*
X180921Y374926D01*
X180430Y374598D01*
X180430Y374598D01*
X151133Y345301D01*
X73041D01*
Y356528D01*
X72883Y356910D01*
X72500Y357069D01*
X2517D01*
Y388341D01*
X3017Y388493D01*
X3582Y387648D01*
X4667Y386562D01*
X5943Y385710D01*
X7361Y385122D01*
X8867Y384823D01*
X9134D01*
Y392614D01*
X9634D01*
D01*
X9134D01*
Y400406D01*
X8867D01*
X7361Y400106D01*
X5943Y399519D01*
X4667Y398666D01*
X3582Y397581D01*
X3017Y396735D01*
X2517Y396887D01*
Y420712D01*
X150657D01*
X150904Y420212D01*
X150504Y419690D01*
X150106Y418729D01*
X149970Y417697D01*
Y415835D01*
X153957D01*
X157944D01*
Y417697D01*
X157808Y418729D01*
X157409Y419690D01*
X157010Y420212D01*
X157256Y420712D01*
X207744D01*
X207990Y420212D01*
D02*
G37*
G36*
X199449Y367248D02*
X199451Y367209D01*
X199462Y367166D01*
X199480Y367120D01*
X199505Y367071D01*
X199538Y367019D01*
X199579Y366963D01*
X199628Y366903D01*
X199748Y366775D01*
X199252Y366280D01*
X199187Y366344D01*
X199065Y366448D01*
X199009Y366489D01*
X198957Y366522D01*
X198907Y366548D01*
X198862Y366566D01*
X198819Y366576D01*
X198780Y366579D01*
X198744Y366574D01*
X199453Y367284D01*
X199449Y367248D01*
D02*
G37*
G36*
X189236Y366072D02*
X189163Y366049D01*
X189097Y366017D01*
X189039Y365977D01*
X188989Y365929D01*
X188947Y365872D01*
X188912Y365807D01*
X188885Y365734D01*
X188865Y365652D01*
X188854Y365563D01*
X188850Y365464D01*
X188150Y365589D01*
X188149Y365757D01*
X188094Y366594D01*
X188080Y366666D01*
X188063Y366726D01*
X189236Y366072D01*
D02*
G37*
G36*
X198125Y363757D02*
X198067Y363686D01*
X198016Y363612D01*
X197972Y363536D01*
X197935Y363457D01*
X197904Y363374D01*
X197880Y363289D01*
X197864Y363201D01*
X197853Y363111D01*
X197850Y363017D01*
X197150D01*
X197147Y363111D01*
X197136Y363201D01*
X197119Y363289D01*
X197096Y363374D01*
X197065Y363457D01*
X197028Y363536D01*
X196984Y363612D01*
X196933Y363686D01*
X196875Y363757D01*
X196811Y363825D01*
X198189D01*
X198125Y363757D01*
D02*
G37*
G36*
X191125D02*
X191067Y363686D01*
X191016Y363612D01*
X190972Y363536D01*
X190935Y363457D01*
X190904Y363374D01*
X190881Y363289D01*
X190864Y363201D01*
X190853Y363111D01*
X190850Y363017D01*
X190150D01*
X190147Y363111D01*
X190136Y363201D01*
X190120Y363289D01*
X190096Y363374D01*
X190065Y363457D01*
X190028Y363536D01*
X189984Y363612D01*
X189933Y363686D01*
X189875Y363757D01*
X189811Y363825D01*
X191189D01*
X191125Y363757D01*
D02*
G37*
G36*
X55133Y342765D02*
X55083Y342701D01*
X55038Y342632D01*
X55000Y342559D01*
X54967Y342482D01*
X54941Y342401D01*
X54920Y342316D01*
X54905Y342227D01*
X54897Y342133D01*
X54894Y342035D01*
X54106D01*
X54103Y342133D01*
X54094Y342227D01*
X54080Y342316D01*
X54059Y342401D01*
X54032Y342482D01*
X54000Y342559D01*
X53962Y342632D01*
X53917Y342701D01*
X53867Y342765D01*
X53811Y342825D01*
X55189D01*
X55133Y342765D01*
D02*
G37*
G36*
X72500Y336028D02*
X55411D01*
Y341967D01*
X55435Y342019D01*
X55437Y342099D01*
X55443Y342157D01*
X55451Y342208D01*
X55462Y342253D01*
X55475Y342292D01*
X55489Y342327D01*
X55506Y342358D01*
X55524Y342386D01*
X55545Y342412D01*
X55584Y342455D01*
X55619Y342547D01*
X55758Y342687D01*
X55984Y343232D01*
Y343823D01*
X55758Y344368D01*
X55341Y344786D01*
X54795Y345012D01*
X54205D01*
X53659Y344786D01*
X53242Y344368D01*
X53016Y343823D01*
Y343232D01*
X53242Y342687D01*
X53381Y342547D01*
X53416Y342455D01*
X53456Y342412D01*
X53476Y342386D01*
X53494Y342358D01*
X53511Y342327D01*
X53525Y342292D01*
X53538Y342253D01*
X53549Y342208D01*
X53557Y342157D01*
X53563Y342099D01*
X53565Y342019D01*
X53589Y341967D01*
Y336028D01*
X49702Y336028D01*
X49368Y336528D01*
X49453Y336732D01*
Y337323D01*
X49227Y337868D01*
X48809Y338286D01*
X48264Y338512D01*
X47673D01*
X47128Y338286D01*
X46710Y337868D01*
X46484Y337323D01*
Y336732D01*
X46569Y336528D01*
X46235Y336028D01*
X28500D01*
Y325919D01*
X25063D01*
X24100Y325727D01*
X23284Y325181D01*
X22738Y324365D01*
X22547Y323402D01*
X22738Y322439D01*
X23284Y321622D01*
X24100Y321076D01*
X25063Y320885D01*
X28500D01*
Y293316D01*
X26623Y291439D01*
X25286D01*
X25244Y291460D01*
X25087Y291474D01*
X24949Y291507D01*
X24781Y291569D01*
X24587Y291665D01*
X24369Y291795D01*
X24131Y291960D01*
X23877Y292157D01*
X23301Y292671D01*
X22989Y292979D01*
X22891Y293019D01*
X22620Y293290D01*
X21833Y293745D01*
X20955Y293980D01*
X20045D01*
X19167Y293745D01*
X18380Y293290D01*
X17737Y292648D01*
X17283Y291860D01*
X17047Y290982D01*
Y290073D01*
X17283Y289195D01*
X17737Y288407D01*
X18380Y287765D01*
X19167Y287310D01*
X20045Y287075D01*
X20955D01*
X21833Y287310D01*
X22620Y287765D01*
X22891Y288036D01*
X22989Y288076D01*
X23301Y288384D01*
X23877Y288898D01*
X24131Y289095D01*
X24369Y289260D01*
X24587Y289390D01*
X24781Y289486D01*
X24949Y289548D01*
X25087Y289581D01*
X25244Y289595D01*
X25286Y289616D01*
X27000D01*
X27349Y289686D01*
X27644Y289883D01*
X28038Y290277D01*
X28500Y290086D01*
Y51028D01*
X2517D01*
X2517Y356528D01*
X72500D01*
Y336028D01*
D02*
G37*
G36*
X48503Y337827D02*
X48768Y337562D01*
X48911Y337215D01*
Y336840D01*
X48868Y336735D01*
Y336679D01*
X48837Y336633D01*
X48868Y336478D01*
Y336320D01*
X48907Y336281D01*
X48918Y336227D01*
X49252Y335727D01*
X49298Y335696D01*
X49319Y335645D01*
X49465Y335584D01*
X49596Y335497D01*
X49651Y335508D01*
X49702Y335486D01*
X53589Y335486D01*
Y318405D01*
X29503Y294319D01*
X29041Y294511D01*
Y320408D01*
X32937D01*
X33712Y320510D01*
X34435Y320809D01*
X35055Y321285D01*
X35530Y321905D01*
X35830Y322627D01*
X35866Y322902D01*
X29000D01*
Y323902D01*
X35866D01*
X35830Y324177D01*
X35530Y324899D01*
X35055Y325519D01*
X34435Y325995D01*
X33712Y326294D01*
X32937Y326396D01*
X29041D01*
Y335486D01*
X46235D01*
X46286Y335508D01*
X46341Y335497D01*
X46472Y335584D01*
X46618Y335645D01*
X46639Y335696D01*
X46685Y335727D01*
X47019Y336227D01*
X47030Y336281D01*
X47069Y336320D01*
Y336478D01*
X47100Y336633D01*
X47069Y336679D01*
Y336735D01*
X47025Y336840D01*
Y337215D01*
X47169Y337562D01*
X47434Y337827D01*
X47781Y337971D01*
X48156D01*
X48503Y337827D01*
D02*
G37*
G36*
X22930Y292277D02*
X23531Y291741D01*
X23810Y291524D01*
X24076Y291340D01*
X24328Y291189D01*
X24566Y291072D01*
X24791Y290988D01*
X25001Y290938D01*
X25198Y290921D01*
Y290134D01*
X25001Y290117D01*
X24791Y290067D01*
X24566Y289983D01*
X24328Y289866D01*
X24076Y289716D01*
X23810Y289531D01*
X23531Y289314D01*
X22930Y288778D01*
X22609Y288461D01*
Y292595D01*
X22930Y292277D01*
D02*
G37*
G36*
X72856Y163888D02*
X72929Y163828D01*
X73003Y163775D01*
X73078Y163729D01*
X73154Y163691D01*
X73231Y163659D01*
X73310Y163635D01*
X73389Y163618D01*
X73470Y163608D01*
X73552Y163605D01*
X72578Y162631D01*
X72575Y162713D01*
X72565Y162794D01*
X72548Y162874D01*
X72524Y162952D01*
X72493Y163030D01*
X72454Y163106D01*
X72408Y163181D01*
X72356Y163254D01*
X72295Y163327D01*
X72228Y163398D01*
X72785Y163955D01*
X72856Y163888D01*
D02*
G37*
G36*
X70212Y161938D02*
X70178Y161977D01*
X70135Y162011D01*
X70085Y162041D01*
X70026Y162067D01*
X69960Y162090D01*
X69885Y162108D01*
X69803Y162122D01*
X69712Y162132D01*
X69506Y162140D01*
X69510Y162927D01*
X69617Y162929D01*
X69807Y162945D01*
X69890Y162959D01*
X69965Y162977D01*
X70032Y162999D01*
X70091Y163025D01*
X70142Y163055D01*
X70185Y163089D01*
X70219Y163127D01*
X70212Y161938D01*
D02*
G37*
G36*
X32797Y65339D02*
X32729Y65403D01*
X32658Y65461D01*
X32585Y65512D01*
X32508Y65556D01*
X32429Y65593D01*
X32347Y65623D01*
X32262Y65647D01*
X32174Y65664D01*
X32083Y65674D01*
X31989Y65678D01*
Y66378D01*
X32083Y66381D01*
X32174Y66391D01*
X32262Y66408D01*
X32347Y66432D01*
X32429Y66462D01*
X32508Y66500D01*
X32585Y66544D01*
X32658Y66594D01*
X32729Y66652D01*
X32797Y66716D01*
Y65339D01*
D02*
G37*
G36*
X33105Y63862D02*
X33176Y63805D01*
X33250Y63754D01*
X33326Y63710D01*
X33406Y63672D01*
X33488Y63642D01*
X33573Y63618D01*
X33661Y63601D01*
X33751Y63591D01*
X33845Y63588D01*
Y62888D01*
X33751Y62884D01*
X33661Y62874D01*
X33573Y62857D01*
X33488Y62833D01*
X33406Y62803D01*
X33326Y62766D01*
X33250Y62722D01*
X33176Y62671D01*
X33105Y62613D01*
X33038Y62549D01*
Y63927D01*
X33105Y63862D01*
D02*
G37*
%LPC*%
G36*
X210543Y414835D02*
X207056D01*
Y412972D01*
X207192Y411941D01*
X207591Y410979D01*
X208224Y410153D01*
X209050Y409520D01*
X210011Y409122D01*
X210543Y409052D01*
Y414835D01*
D02*
G37*
G36*
X157944Y414835D02*
X154457D01*
Y409052D01*
X154989Y409122D01*
X155950Y409520D01*
X156776Y410153D01*
X157409Y410979D01*
X157808Y411941D01*
X157944Y412972D01*
Y414835D01*
D02*
G37*
G36*
X153457D02*
X149970D01*
Y412972D01*
X150106Y411941D01*
X150504Y410979D01*
X151138Y410153D01*
X151963Y409520D01*
X152925Y409122D01*
X153457Y409052D01*
Y414835D01*
D02*
G37*
G36*
X134830Y412630D02*
X133910D01*
X133022Y412392D01*
X132226Y411932D01*
X131576Y411282D01*
X131116Y410485D01*
X130878Y409597D01*
Y408678D01*
X131116Y407790D01*
X131576Y406993D01*
X132226Y406343D01*
X133022Y405883D01*
X133910Y405645D01*
X134830D01*
X135718Y405883D01*
X136514Y406343D01*
X137164Y406993D01*
X137624Y407790D01*
X137862Y408678D01*
Y409597D01*
X137624Y410485D01*
X137164Y411282D01*
X136514Y411932D01*
X135718Y412392D01*
X134830Y412630D01*
D02*
G37*
G36*
X124830D02*
X123910D01*
X123022Y412392D01*
X122226Y411932D01*
X121576Y411282D01*
X121116Y410485D01*
X120878Y409597D01*
Y408678D01*
X121116Y407790D01*
X121576Y406993D01*
X122226Y406343D01*
X123022Y405883D01*
X123910Y405645D01*
X124830D01*
X125718Y405883D01*
X126514Y406343D01*
X127164Y406993D01*
X127624Y407790D01*
X127862Y408678D01*
Y409597D01*
X127624Y410485D01*
X127164Y411282D01*
X126514Y411932D01*
X125718Y412392D01*
X124830Y412630D01*
D02*
G37*
G36*
X92625D02*
X91706D01*
X90817Y412392D01*
X90021Y411932D01*
X89371Y411282D01*
X88911Y410485D01*
X88673Y409597D01*
Y408678D01*
X88911Y407790D01*
X89371Y406993D01*
X90021Y406343D01*
X90817Y405883D01*
X91706Y405645D01*
X92625D01*
X93513Y405883D01*
X94310Y406343D01*
X94960Y406993D01*
X95420Y407790D01*
X95657Y408678D01*
Y409597D01*
X95420Y410485D01*
X94960Y411282D01*
X94310Y411932D01*
X93513Y412392D01*
X92625Y412630D01*
D02*
G37*
G36*
X82625D02*
X81706D01*
X80817Y412392D01*
X80021Y411932D01*
X79371Y411282D01*
X78911Y410485D01*
X78673Y409597D01*
Y408678D01*
X78911Y407790D01*
X79371Y406993D01*
X80021Y406343D01*
X80817Y405883D01*
X81706Y405645D01*
X82625D01*
X83513Y405883D01*
X84310Y406343D01*
X84960Y406993D01*
X85419Y407790D01*
X85658Y408678D01*
Y409597D01*
X85419Y410485D01*
X84960Y411282D01*
X84310Y411932D01*
X83513Y412392D01*
X82625Y412630D01*
D02*
G37*
G36*
X62134Y400406D02*
X61866D01*
Y393114D01*
X69157D01*
Y393382D01*
X68858Y394887D01*
X68271Y396305D01*
X67418Y397581D01*
X66333Y398666D01*
X65057Y399519D01*
X63639Y400106D01*
X62134Y400406D01*
D02*
G37*
G36*
X10401D02*
X10134D01*
Y393114D01*
X17425D01*
Y393382D01*
X17126Y394887D01*
X16538Y396305D01*
X15686Y397581D01*
X14601Y398666D01*
X13324Y399519D01*
X11907Y400106D01*
X10401Y400406D01*
D02*
G37*
G36*
X60866D02*
X60599D01*
X59093Y400106D01*
X57676Y399519D01*
X56400Y398666D01*
X55314Y397581D01*
X54461Y396305D01*
X53874Y394887D01*
X53575Y393382D01*
Y393114D01*
X60866D01*
Y400406D01*
D02*
G37*
G36*
X154457Y399177D02*
Y392213D01*
X157944D01*
Y395256D01*
X157808Y396288D01*
X157409Y397249D01*
X156776Y398075D01*
X155950Y398709D01*
X154989Y399107D01*
X154457Y399177D01*
D02*
G37*
G36*
X153457Y399177D02*
X152925Y399107D01*
X151963Y398709D01*
X151138Y398075D01*
X150504Y397249D01*
X150106Y396288D01*
X149970Y395256D01*
Y392213D01*
X153457D01*
Y399177D01*
D02*
G37*
G36*
X210543D02*
X210011Y399107D01*
X209050Y398709D01*
X208224Y398075D01*
X207591Y397249D01*
X207192Y396288D01*
X207056Y395256D01*
Y392213D01*
X210543D01*
Y399177D01*
D02*
G37*
G36*
X69157Y392114D02*
X61866D01*
Y384823D01*
X62134D01*
X63639Y385122D01*
X65057Y385710D01*
X66333Y386562D01*
X67418Y387648D01*
X68271Y388924D01*
X68858Y390341D01*
X69157Y391847D01*
Y392114D01*
D02*
G37*
G36*
X60866D02*
X53575D01*
Y391847D01*
X53874Y390341D01*
X54461Y388924D01*
X55314Y387648D01*
X56400Y386562D01*
X57676Y385710D01*
X59093Y385122D01*
X60599Y384823D01*
X60866D01*
Y392114D01*
D02*
G37*
G36*
X17425D02*
X10134D01*
Y384823D01*
X10401D01*
X11907Y385122D01*
X13324Y385710D01*
X14601Y386562D01*
X15686Y387648D01*
X16538Y388924D01*
X17126Y390341D01*
X17425Y391847D01*
Y392114D01*
D02*
G37*
G36*
X157944Y391213D02*
X154457D01*
Y384248D01*
X154989Y384318D01*
X155950Y384717D01*
X156776Y385350D01*
X157409Y386176D01*
X157808Y387138D01*
X157944Y388169D01*
Y391213D01*
D02*
G37*
G36*
X153457D02*
X149970D01*
Y388169D01*
X150106Y387138D01*
X150504Y386176D01*
X151138Y385350D01*
X151963Y384717D01*
X152925Y384318D01*
X153457Y384248D01*
Y391213D01*
D02*
G37*
G36*
X210543D02*
X207056D01*
Y388169D01*
X207192Y387138D01*
X207591Y386176D01*
X208224Y385350D01*
X209050Y384717D01*
X210011Y384318D01*
X210543Y384248D01*
Y391213D01*
D02*
G37*
G36*
X131447Y396744D02*
X130088D01*
X128756Y396479D01*
X127500Y395959D01*
X126371Y395204D01*
X125410Y394243D01*
X124655Y393113D01*
X124135Y391858D01*
X123870Y390525D01*
Y389167D01*
X124135Y387834D01*
X124655Y386579D01*
X125410Y385449D01*
X126371Y384488D01*
X127500Y383733D01*
X128756Y383213D01*
X130088Y382948D01*
X131447D01*
X132780Y383213D01*
X134035Y383733D01*
X135165Y384488D01*
X136126Y385449D01*
X136880Y386579D01*
X137400Y387834D01*
X137665Y389167D01*
Y390525D01*
X137400Y391858D01*
X136880Y393113D01*
X136126Y394243D01*
X135165Y395204D01*
X134035Y395959D01*
X132780Y396479D01*
X131447Y396744D01*
D02*
G37*
G36*
X86447D02*
X85088D01*
X83756Y396479D01*
X82500Y395959D01*
X81371Y395204D01*
X80410Y394243D01*
X79655Y393113D01*
X79135Y391858D01*
X78870Y390525D01*
Y389167D01*
X79135Y387834D01*
X79655Y386579D01*
X80410Y385449D01*
X81371Y384488D01*
X82500Y383733D01*
X83756Y383213D01*
X85088Y382948D01*
X86447D01*
X87780Y383213D01*
X89035Y383733D01*
X90165Y384488D01*
X91126Y385449D01*
X91880Y386579D01*
X92400Y387834D01*
X92665Y389167D01*
Y390525D01*
X92400Y391858D01*
X91880Y393113D01*
X91126Y394243D01*
X90165Y395204D01*
X89035Y395959D01*
X87780Y396479D01*
X86447Y396744D01*
D02*
G37*
G36*
X22220Y385740D02*
Y382445D01*
X25516D01*
X25257Y383410D01*
X24757Y384275D01*
X24051Y384982D01*
X23185Y385482D01*
X22220Y385740D01*
D02*
G37*
G36*
X21220D02*
X20256Y385482D01*
X19390Y384982D01*
X18684Y384275D01*
X18184Y383410D01*
X17925Y382445D01*
X21220D01*
Y385740D01*
D02*
G37*
G36*
X49713Y385240D02*
X48846D01*
X48008Y385016D01*
X47256Y384582D01*
X46643Y383968D01*
X46209Y383217D01*
X45984Y382379D01*
Y381511D01*
X46209Y380673D01*
X46643Y379922D01*
X47256Y379308D01*
X48008Y378874D01*
X48846Y378650D01*
X49713D01*
X50551Y378874D01*
X51303Y379308D01*
X51916Y379922D01*
X52350Y380673D01*
X52575Y381511D01*
Y382379D01*
X52350Y383217D01*
X51916Y383968D01*
X51303Y384582D01*
X50551Y385016D01*
X49713Y385240D01*
D02*
G37*
G36*
X39871D02*
X39003D01*
X38165Y385016D01*
X37414Y384582D01*
X36800Y383968D01*
X36366Y383217D01*
X36142Y382379D01*
Y381511D01*
X36366Y380673D01*
X36800Y379922D01*
X37414Y379308D01*
X38165Y378874D01*
X39003Y378650D01*
X39871D01*
X40709Y378874D01*
X41460Y379308D01*
X42074Y379922D01*
X42508Y380673D01*
X42732Y381511D01*
Y382379D01*
X42508Y383217D01*
X42074Y383968D01*
X41460Y384582D01*
X40709Y385016D01*
X39871Y385240D01*
D02*
G37*
G36*
X31997D02*
X31129D01*
X30291Y385016D01*
X29540Y384582D01*
X28926Y383968D01*
X28492Y383217D01*
X28268Y382379D01*
Y381511D01*
X28492Y380673D01*
X28926Y379922D01*
X29540Y379308D01*
X30291Y378874D01*
X31129Y378650D01*
X31997D01*
X32835Y378874D01*
X33586Y379308D01*
X34200Y379922D01*
X34634Y380673D01*
X34858Y381511D01*
Y382379D01*
X34634Y383217D01*
X34200Y383968D01*
X33586Y384582D01*
X32835Y385016D01*
X31997Y385240D01*
D02*
G37*
G36*
X78529Y383563D02*
X78276D01*
Y378338D01*
X83500D01*
Y378592D01*
X83110Y380048D01*
X82356Y381353D01*
X81290Y382419D01*
X79985Y383172D01*
X78529Y383563D01*
D02*
G37*
G36*
X77276D02*
X77022D01*
X75566Y383172D01*
X74261Y382419D01*
X73195Y381353D01*
X72441Y380048D01*
X72051Y378592D01*
Y378338D01*
X77276D01*
Y383563D01*
D02*
G37*
G36*
X139514Y383563D02*
X139260D01*
Y378338D01*
X144484D01*
Y378592D01*
X144094Y380048D01*
X143341Y381353D01*
X142275Y382419D01*
X140969Y383172D01*
X139514Y383563D01*
D02*
G37*
G36*
X138260D02*
X138006D01*
X136550Y383172D01*
X135245Y382419D01*
X134179Y381353D01*
X133425Y380048D01*
X133035Y378592D01*
Y378338D01*
X138260D01*
Y383563D01*
D02*
G37*
G36*
X25516Y381445D02*
X22220D01*
Y378150D01*
X23185Y378408D01*
X24051Y378908D01*
X24757Y379614D01*
X25257Y380480D01*
X25516Y381445D01*
D02*
G37*
G36*
X21220D02*
X17925D01*
X18184Y380480D01*
X18684Y379614D01*
X19390Y378908D01*
X20256Y378408D01*
X21220Y378150D01*
Y381445D01*
D02*
G37*
G36*
X83500Y377338D02*
X78276D01*
Y372114D01*
X78529D01*
X79985Y372504D01*
X81290Y373257D01*
X82356Y374323D01*
X83110Y375629D01*
X83500Y377084D01*
Y377338D01*
D02*
G37*
G36*
X77276D02*
X72051D01*
Y377084D01*
X72441Y375629D01*
X73195Y374323D01*
X74261Y373257D01*
X75566Y372504D01*
X77022Y372114D01*
X77276D01*
Y377338D01*
D02*
G37*
G36*
X144484Y377338D02*
X139260D01*
Y372114D01*
X139514D01*
X140969Y372504D01*
X142275Y373257D01*
X143341Y374323D01*
X144094Y375629D01*
X144484Y377084D01*
Y377338D01*
D02*
G37*
G36*
X138260D02*
X133035D01*
Y377084D01*
X133425Y375629D01*
X134179Y374323D01*
X135245Y373257D01*
X136550Y372504D01*
X138006Y372114D01*
X138260D01*
Y377338D01*
D02*
G37*
G36*
X86268Y368601D02*
Y365346D01*
X89522D01*
X89268Y366296D01*
X88773Y367152D01*
X88074Y367851D01*
X87217Y368346D01*
X86268Y368601D01*
D02*
G37*
G36*
X85268D02*
X84318Y368346D01*
X83461Y367851D01*
X82762Y367152D01*
X82268Y366296D01*
X82013Y365346D01*
X85268D01*
Y368601D01*
D02*
G37*
G36*
X126196Y368102D02*
X125339D01*
X124511Y367880D01*
X123768Y367451D01*
X123162Y366845D01*
X122734Y366103D01*
X122512Y365275D01*
Y364417D01*
X122734Y363589D01*
X123162Y362847D01*
X123768Y362241D01*
X124511Y361812D01*
X125339Y361590D01*
X126196D01*
X127024Y361812D01*
X127767Y362241D01*
X128373Y362847D01*
X128802Y363589D01*
X129024Y364417D01*
Y365275D01*
X128802Y366103D01*
X128373Y366845D01*
X127767Y367451D01*
X127024Y367880D01*
X126196Y368102D01*
D02*
G37*
G36*
X116196D02*
X115339D01*
X114511Y367880D01*
X113768Y367451D01*
X113162Y366845D01*
X112734Y366103D01*
X112512Y365275D01*
Y364417D01*
X112734Y363589D01*
X113162Y362847D01*
X113768Y362241D01*
X114511Y361812D01*
X115339Y361590D01*
X116196D01*
X117024Y361812D01*
X117767Y362241D01*
X118373Y362847D01*
X118802Y363589D01*
X119024Y364417D01*
Y365275D01*
X118802Y366103D01*
X118373Y366845D01*
X117767Y367451D01*
X117024Y367880D01*
X116196Y368102D01*
D02*
G37*
G36*
X106196Y368102D02*
X105339D01*
X104511Y367880D01*
X103769Y367451D01*
X103162Y366845D01*
X102734Y366103D01*
X102512Y365275D01*
Y364417D01*
X102734Y363589D01*
X103162Y362847D01*
X103769Y362241D01*
X104511Y361812D01*
X105339Y361590D01*
X106196D01*
X107025Y361812D01*
X107767Y362241D01*
X108373Y362847D01*
X108802Y363589D01*
X109024Y364417D01*
Y365275D01*
X108802Y366103D01*
X108373Y366845D01*
X107767Y367451D01*
X107025Y367880D01*
X106196Y368102D01*
D02*
G37*
G36*
X89522Y364346D02*
X86268D01*
Y361092D01*
X87217Y361346D01*
X88074Y361841D01*
X88773Y362540D01*
X89268Y363396D01*
X89522Y364346D01*
D02*
G37*
G36*
X85268D02*
X82013D01*
X82268Y363396D01*
X82762Y362540D01*
X83461Y361841D01*
X84318Y361346D01*
X85268Y361092D01*
Y364346D01*
D02*
G37*
G36*
X121196Y358102D02*
X120339D01*
X119511Y357880D01*
X118769Y357451D01*
X118162Y356845D01*
X117734Y356103D01*
X117512Y355275D01*
Y354417D01*
X117734Y353589D01*
X118162Y352847D01*
X118769Y352241D01*
X119511Y351812D01*
X120339Y351590D01*
X121196D01*
X122024Y351812D01*
X122767Y352241D01*
X123373Y352847D01*
X123802Y353589D01*
X124024Y354417D01*
Y355275D01*
X123802Y356103D01*
X123373Y356845D01*
X122767Y357451D01*
X122024Y357880D01*
X121196Y358102D01*
D02*
G37*
G36*
X111196D02*
X110339D01*
X109511Y357880D01*
X108768Y357451D01*
X108162Y356845D01*
X107734Y356103D01*
X107512Y355275D01*
Y354417D01*
X107734Y353589D01*
X108162Y352847D01*
X108768Y352241D01*
X109511Y351812D01*
X110339Y351590D01*
X111196D01*
X112024Y351812D01*
X112767Y352241D01*
X113373Y352847D01*
X113802Y353589D01*
X114024Y354417D01*
Y355275D01*
X113802Y356103D01*
X113373Y356845D01*
X112767Y357451D01*
X112024Y357880D01*
X111196Y358102D01*
D02*
G37*
G36*
X91196D02*
X90339D01*
X89511Y357880D01*
X88769Y357451D01*
X88162Y356845D01*
X87734Y356103D01*
X87512Y355275D01*
Y354417D01*
X87734Y353589D01*
X88162Y352847D01*
X88769Y352241D01*
X89511Y351812D01*
X90339Y351590D01*
X91196D01*
X92024Y351812D01*
X92767Y352241D01*
X93373Y352847D01*
X93802Y353589D01*
X94024Y354417D01*
Y355275D01*
X93802Y356103D01*
X93373Y356845D01*
X92767Y357451D01*
X92024Y357880D01*
X91196Y358102D01*
D02*
G37*
G36*
X132146Y358139D02*
X129390D01*
X128657Y357993D01*
X128036Y357578D01*
X127621Y356957D01*
X127475Y356224D01*
Y353468D01*
X127621Y352735D01*
X128036Y352114D01*
X128657Y351699D01*
X129390Y351553D01*
X132146D01*
X132878Y351699D01*
X133500Y352114D01*
X133915Y352735D01*
X133966Y352991D01*
X133984Y353028D01*
X133989Y353110D01*
X134003Y353178D01*
X134022Y353207D01*
X134072Y353252D01*
X134170Y353310D01*
X134325Y353370D01*
X134538Y353424D01*
X134805Y353466D01*
X135124Y353493D01*
X135505Y353502D01*
X135532Y353514D01*
X152500D01*
X152646Y353543D01*
X152795D01*
X152933Y353600D01*
X153079Y353629D01*
X153203Y353712D01*
X153341Y353769D01*
X153446Y353875D01*
X153570Y353958D01*
X153653Y354081D01*
X153758Y354187D01*
X153815Y354325D01*
X153898Y354448D01*
X153927Y354595D01*
X153984Y354732D01*
Y354881D01*
X154013Y355028D01*
X153984Y355174D01*
Y355323D01*
X153927Y355461D01*
X153898Y355607D01*
X153815Y355731D01*
X153758Y355868D01*
X153653Y355974D01*
X153570Y356098D01*
X153446Y356181D01*
X153341Y356286D01*
X153203Y356343D01*
X153079Y356426D01*
X152933Y356455D01*
X152795Y356512D01*
X152646D01*
X152500Y356541D01*
X135532D01*
X135505Y356553D01*
X135105Y356562D01*
X134766Y356589D01*
X134478Y356632D01*
X134243Y356687D01*
X134065Y356752D01*
X133942Y356817D01*
X133915Y356957D01*
X133640Y357367D01*
X133630Y357388D01*
X133625Y357390D01*
X133500Y357578D01*
X132878Y357993D01*
X132146Y358139D01*
D02*
G37*
G36*
X101196Y358102D02*
X100339D01*
X99511Y357880D01*
X98769Y357451D01*
X98162Y356845D01*
X97734Y356103D01*
X97512Y355275D01*
Y354417D01*
X97734Y353589D01*
X98162Y352847D01*
X98769Y352241D01*
X99511Y351812D01*
X100339Y351590D01*
X100695D01*
X100793Y351549D01*
X100795Y351549D01*
X100795Y351549D01*
X100795Y351549D01*
X101205Y351547D01*
X101931Y351507D01*
X102229Y351470D01*
X102495Y351423D01*
X102724Y351367D01*
X102912Y351304D01*
X103059Y351238D01*
X103167Y351172D01*
X103274Y351082D01*
X103321Y351067D01*
X105973Y348415D01*
X106254Y348227D01*
X106586Y348161D01*
X116084D01*
X116138Y348137D01*
X116208Y348134D01*
X116256Y348130D01*
X116297Y348123D01*
X116333Y348114D01*
X116365Y348104D01*
X116392Y348092D01*
X116416Y348079D01*
X116439Y348064D01*
X116460Y348048D01*
X116497Y348013D01*
X116590Y347978D01*
X116715Y347853D01*
X117224Y347642D01*
X117776D01*
X118285Y347853D01*
X118675Y348243D01*
X118886Y348752D01*
Y349303D01*
X118675Y349813D01*
X118285Y350202D01*
X117776Y350413D01*
X117224D01*
X116715Y350202D01*
X116590Y350078D01*
X116497Y350043D01*
X116460Y350007D01*
X116439Y349991D01*
X116416Y349976D01*
X116392Y349963D01*
X116365Y349952D01*
X116333Y349941D01*
X116297Y349932D01*
X116256Y349925D01*
X116208Y349921D01*
X116138Y349919D01*
X116084Y349894D01*
X106945D01*
X104547Y352293D01*
X104532Y352339D01*
X104441Y352447D01*
X104376Y352554D01*
X104310Y352702D01*
X104247Y352890D01*
X104191Y353118D01*
X104146Y353373D01*
X104067Y354414D01*
X104065Y354821D01*
X104024Y354919D01*
Y355275D01*
X103802Y356103D01*
X103373Y356845D01*
X102767Y357451D01*
X102024Y357880D01*
X101196Y358102D01*
D02*
G37*
G36*
X96196Y368102D02*
X95339D01*
X94511Y367880D01*
X93769Y367451D01*
X93162Y366845D01*
X92734Y366103D01*
X92512Y365275D01*
Y364417D01*
X92734Y363589D01*
X93162Y362847D01*
X93414Y362595D01*
X93454Y362497D01*
X93744Y362204D01*
X94229Y361663D01*
X94414Y361426D01*
X94569Y361204D01*
X94691Y361003D01*
X94779Y360825D01*
X94837Y360674D01*
X94866Y360552D01*
X94879Y360412D01*
X94901Y360369D01*
Y350013D01*
X94877Y349960D01*
X94874Y349892D01*
X94870Y349853D01*
X94864Y349826D01*
X94859Y349809D01*
X94856Y349802D01*
X94828Y349786D01*
X94787Y349732D01*
X94715Y349702D01*
X94325Y349313D01*
X94114Y348803D01*
Y348252D01*
X94325Y347743D01*
X94715Y347353D01*
X95224Y347142D01*
X95776D01*
X96285Y347353D01*
X96675Y347743D01*
X96886Y348252D01*
Y348803D01*
X96775Y349071D01*
X96767Y349183D01*
X96743Y349232D01*
X96727Y349270D01*
X96712Y349311D01*
X96701Y349348D01*
X96677Y349459D01*
X96671Y349502D01*
X96660Y349634D01*
X96659Y349704D01*
X96634Y349760D01*
Y360369D01*
X96657Y360412D01*
X96669Y360552D01*
X96699Y360674D01*
X96756Y360825D01*
X96845Y361003D01*
X96966Y361204D01*
X97114Y361416D01*
X97795Y362208D01*
X98081Y362497D01*
X98121Y362595D01*
X98373Y362847D01*
X98802Y363589D01*
X99024Y364417D01*
Y365275D01*
X98802Y366103D01*
X98373Y366845D01*
X97767Y367451D01*
X97024Y367880D01*
X96196Y368102D01*
D02*
G37*
G36*
X133858Y339628D02*
X108768D01*
Y325303D01*
X148644D01*
X148501Y327122D01*
X147958Y329384D01*
X147068Y331534D01*
X145852Y333517D01*
X144341Y335286D01*
X142572Y336797D01*
X140589Y338013D01*
X138440Y338903D01*
X136177Y339446D01*
X133858Y339628D01*
D02*
G37*
G36*
X148644Y324303D02*
X108768D01*
Y309978D01*
X133858D01*
X136177Y310160D01*
X138440Y310703D01*
X140589Y311594D01*
X142572Y312809D01*
X144341Y314320D01*
X145852Y316089D01*
X147068Y318073D01*
X147958Y320222D01*
X148501Y322484D01*
X148644Y324303D01*
D02*
G37*
G36*
X107768D02*
X67891D01*
X68034Y322484D01*
X68577Y320222D01*
X69468Y318073D01*
X70683Y316089D01*
X72194Y314320D01*
X73963Y312809D01*
X75947Y311594D01*
X78096Y310703D01*
X80358Y310160D01*
X82677Y309978D01*
X107768D01*
Y324303D01*
D02*
G37*
G36*
X50020Y304980D02*
X50000D01*
Y301528D01*
X53453D01*
Y301548D01*
X53183Y302553D01*
X52663Y303455D01*
X51927Y304190D01*
X51026Y304711D01*
X50020Y304980D01*
D02*
G37*
G36*
X109953D02*
X106500D01*
Y301528D01*
X109953D01*
Y304980D01*
D02*
G37*
G36*
X105500D02*
X102047D01*
Y301528D01*
X105500D01*
Y304980D01*
D02*
G37*
G36*
X49000D02*
X48980D01*
X47974Y304711D01*
X47073Y304190D01*
X46337Y303455D01*
X45817Y302553D01*
X45547Y301548D01*
Y301528D01*
X49000D01*
Y304980D01*
D02*
G37*
G36*
X109953Y300528D02*
X106500D01*
Y297075D01*
X109953D01*
Y300528D01*
D02*
G37*
G36*
X105500D02*
X102047D01*
Y297075D01*
X105500D01*
Y300528D01*
D02*
G37*
G36*
X53453D02*
X50000D01*
Y297075D01*
X50020D01*
X51026Y297344D01*
X51927Y297865D01*
X52663Y298601D01*
X53183Y299502D01*
X53453Y300507D01*
Y300528D01*
D02*
G37*
G36*
X49000D02*
X45547D01*
Y300507D01*
X45817Y299502D01*
X46337Y298601D01*
X47073Y297865D01*
X47974Y297344D01*
X48980Y297075D01*
X49000D01*
Y300528D01*
D02*
G37*
G36*
X106455Y294480D02*
X105545D01*
X104667Y294245D01*
X103880Y293790D01*
X103237Y293148D01*
X102782Y292360D01*
X102547Y291482D01*
Y290573D01*
X102782Y289695D01*
X103237Y288908D01*
X103880Y288265D01*
X104667Y287810D01*
X105545Y287575D01*
X106455D01*
X107333Y287810D01*
X108120Y288265D01*
X108763Y288908D01*
X109218Y289695D01*
X109453Y290573D01*
Y291482D01*
X109218Y292360D01*
X108763Y293148D01*
X108120Y293790D01*
X107333Y294245D01*
X106455Y294480D01*
D02*
G37*
G36*
X52953Y274480D02*
X46047D01*
Y267575D01*
X52953D01*
Y274480D01*
D02*
G37*
G36*
X106455Y264480D02*
X105545D01*
X104667Y264245D01*
X103880Y263790D01*
X103612Y263523D01*
X103518Y263486D01*
X103316Y263293D01*
X103124Y263134D01*
X102929Y262996D01*
X102731Y262877D01*
X102530Y262778D01*
X102324Y262697D01*
X102114Y262634D01*
X101898Y262590D01*
X101675Y262563D01*
X101423Y262553D01*
X101398Y262541D01*
X76500D01*
X76500Y262541D01*
X75921Y262426D01*
X75430Y262098D01*
X75430Y262098D01*
X74930Y261598D01*
X74847Y261474D01*
X74742Y261368D01*
X74685Y261231D01*
X74602Y261107D01*
X74573Y260961D01*
X74516Y260823D01*
Y260674D01*
X74487Y260528D01*
X74516Y260381D01*
Y260232D01*
X74573Y260095D01*
X74602Y259948D01*
X74685Y259824D01*
X74742Y259687D01*
X74847Y259581D01*
X74930Y259457D01*
X75054Y259375D01*
X75159Y259269D01*
X75297Y259212D01*
X75421Y259129D01*
X75567Y259100D01*
X75705Y259043D01*
X75854D01*
X76000Y259014D01*
X76146Y259043D01*
X76295D01*
X76433Y259100D01*
X76579Y259129D01*
X76703Y259212D01*
X76841Y259269D01*
X76946Y259375D01*
X77070Y259457D01*
X77127Y259514D01*
X101398D01*
X101423Y259503D01*
X101675Y259493D01*
X101898Y259466D01*
X102114Y259421D01*
X102324Y259358D01*
X102530Y259277D01*
X102731Y259178D01*
X102929Y259059D01*
X103124Y258921D01*
X103316Y258762D01*
X103518Y258569D01*
X103612Y258533D01*
X103880Y258265D01*
X104667Y257810D01*
X105545Y257575D01*
X106455D01*
X106544Y257599D01*
X106580Y257576D01*
X106987Y257224D01*
Y234130D01*
X106975Y234104D01*
X106965Y233853D01*
X106938Y233629D01*
X106893Y233413D01*
X106830Y233203D01*
X106750Y232998D01*
X106650Y232796D01*
X106532Y232598D01*
X106393Y232404D01*
X106234Y232212D01*
X106042Y232010D01*
X106005Y231915D01*
X105737Y231648D01*
X105282Y230860D01*
X105047Y229982D01*
Y229073D01*
X105282Y228195D01*
X105737Y227408D01*
X106380Y226765D01*
X107167Y226310D01*
X108045Y226075D01*
X108955D01*
X109833Y226310D01*
X110620Y226765D01*
X111263Y227408D01*
X111717Y228195D01*
X111953Y229073D01*
Y229982D01*
X111717Y230860D01*
X111263Y231648D01*
X110995Y231915D01*
X110958Y232010D01*
X110766Y232212D01*
X110607Y232404D01*
X110468Y232598D01*
X110350Y232796D01*
X110250Y232998D01*
X110170Y233203D01*
X110107Y233413D01*
X110062Y233630D01*
X110035Y233853D01*
X110025Y234104D01*
X110013Y234130D01*
Y257906D01*
X109898Y258485D01*
X109607Y258920D01*
X109584Y258979D01*
X109452Y259115D01*
X109245Y259350D01*
X109179Y259436D01*
X109132Y259507D01*
X109121Y259527D01*
X109218Y259695D01*
X109453Y260573D01*
Y261482D01*
X109218Y262360D01*
X108763Y263148D01*
X108120Y263790D01*
X107333Y264245D01*
X106455Y264480D01*
D02*
G37*
G36*
X102453Y233480D02*
X99000D01*
Y230028D01*
X102453D01*
Y233480D01*
D02*
G37*
G36*
X98000D02*
X94547D01*
Y230028D01*
X98000D01*
Y233480D01*
D02*
G37*
G36*
X49955Y294480D02*
X49045D01*
X48167Y294245D01*
X47380Y293790D01*
X47109Y293519D01*
X47010Y293479D01*
X46699Y293171D01*
X46123Y292657D01*
X45869Y292460D01*
X45631Y292295D01*
X45413Y292165D01*
X45219Y292070D01*
X45052Y292007D01*
X44912Y291974D01*
X44756Y291961D01*
X44714Y291939D01*
X41500D01*
X41151Y291869D01*
X40856Y291672D01*
X36068Y286884D01*
X35871Y286589D01*
X35801Y286240D01*
Y197225D01*
X35801Y197225D01*
Y111775D01*
X35097Y111071D01*
X35044Y111051D01*
X34985Y110995D01*
X34940Y110958D01*
X34898Y110928D01*
X34859Y110904D01*
X34822Y110885D01*
X34787Y110871D01*
X34754Y110861D01*
X34721Y110854D01*
X34688Y110850D01*
X34629Y110848D01*
X34539Y110807D01*
X34343D01*
X33797Y110581D01*
X33380Y110164D01*
X33154Y109618D01*
Y109028D01*
X33380Y108482D01*
X33797Y108064D01*
X33867Y107494D01*
X33742Y107368D01*
X33516Y106823D01*
Y106232D01*
X33742Y105687D01*
X34159Y105269D01*
X34705Y105043D01*
X35295D01*
X35841Y105269D01*
X36258Y105687D01*
X36484Y106232D01*
Y106429D01*
X36525Y106519D01*
X36527Y106578D01*
X36531Y106611D01*
X36538Y106643D01*
X36548Y106677D01*
X36562Y106712D01*
X36581Y106748D01*
X36605Y106788D01*
X36636Y106830D01*
X36673Y106875D01*
X36728Y106934D01*
X36748Y106987D01*
X38644Y108883D01*
X38842Y109179D01*
X38911Y109528D01*
Y277329D01*
X41698Y280116D01*
X44714D01*
X44756Y280095D01*
X44912Y280081D01*
X45052Y280048D01*
X45219Y279986D01*
X45413Y279890D01*
X45631Y279760D01*
X45869Y279595D01*
X46123Y279398D01*
X46700Y278884D01*
X47010Y278576D01*
X47109Y278536D01*
X47380Y278265D01*
X48167Y277810D01*
X49045Y277575D01*
X49955D01*
X50833Y277810D01*
X51620Y278265D01*
X51891Y278536D01*
X51990Y278576D01*
X52301Y278884D01*
X52877Y279398D01*
X53131Y279595D01*
X53369Y279760D01*
X53587Y279890D01*
X53781Y279986D01*
X53948Y280048D01*
X54088Y280081D01*
X54244Y280095D01*
X54286Y280116D01*
X88623D01*
X98356Y270383D01*
X98651Y270186D01*
X99000Y270116D01*
X101214D01*
X101256Y270095D01*
X101412Y270081D01*
X101551Y270048D01*
X101719Y269986D01*
X101913Y269890D01*
X102131Y269760D01*
X102369Y269595D01*
X102623Y269398D01*
X103200Y268884D01*
X103510Y268576D01*
X103609Y268536D01*
X103880Y268265D01*
X104667Y267810D01*
X105545Y267575D01*
X106455D01*
X107333Y267810D01*
X108120Y268265D01*
X108444Y268589D01*
X108486Y268596D01*
X108524Y268651D01*
X108585Y268677D01*
X108745Y268844D01*
X108894Y268979D01*
X109043Y269096D01*
X109193Y269194D01*
X109344Y269276D01*
X109495Y269342D01*
X109649Y269393D01*
X109806Y269429D01*
X109809Y269430D01*
X112589Y266650D01*
Y226028D01*
X112658Y225679D01*
X112856Y225383D01*
X114356Y223883D01*
X114651Y223686D01*
X115000Y223616D01*
X124885D01*
X125234Y223686D01*
X125529Y223883D01*
X126668Y225022D01*
X126709Y225034D01*
X126742Y225060D01*
X129120Y226046D01*
X129628Y226221D01*
X129629Y226222D01*
X129631Y226222D01*
X129685Y226271D01*
X129833Y226310D01*
X130620Y226765D01*
X131263Y227408D01*
X131718Y228195D01*
X131953Y229073D01*
Y229982D01*
X131718Y230860D01*
X131263Y231648D01*
X130620Y232290D01*
X129833Y232745D01*
X128955Y232980D01*
X128045D01*
X127167Y232745D01*
X126380Y232290D01*
X125737Y231648D01*
X125283Y230860D01*
X125047Y229982D01*
Y229073D01*
X125217Y228439D01*
X125211Y228349D01*
X125329Y227994D01*
X125414Y227680D01*
X125469Y227395D01*
X125498Y227139D01*
X125501Y226914D01*
X125482Y226721D01*
X125443Y226557D01*
X125389Y226419D01*
X125319Y226301D01*
X125202Y226164D01*
X125188Y226119D01*
X124507Y225439D01*
X115377D01*
X114411Y226405D01*
Y267028D01*
X114342Y267376D01*
X114144Y267672D01*
X110778Y271038D01*
X110483Y271236D01*
X110267Y271278D01*
X110166Y271328D01*
X110013Y271337D01*
X109911Y271356D01*
X109822Y271387D01*
X109745Y271427D01*
X109672Y271480D01*
X109601Y271549D01*
X109531Y271639D01*
X109462Y271754D01*
X109397Y271894D01*
X109331Y272082D01*
X109288Y272129D01*
X109277Y272192D01*
X109259Y272204D01*
X109218Y272360D01*
X108763Y273148D01*
X108120Y273790D01*
X107333Y274245D01*
X106455Y274480D01*
X105545D01*
X104667Y274245D01*
X103880Y273790D01*
X103609Y273519D01*
X103510Y273479D01*
X103199Y273171D01*
X102623Y272657D01*
X102369Y272460D01*
X102131Y272295D01*
X101913Y272165D01*
X101719Y272070D01*
X101551Y272007D01*
X101412Y271974D01*
X101256Y271960D01*
X101214Y271939D01*
X99377D01*
X89644Y281672D01*
X89349Y281869D01*
X89000Y281939D01*
X54286D01*
X54244Y281961D01*
X54088Y281974D01*
X53948Y282007D01*
X53781Y282069D01*
X53587Y282165D01*
X53369Y282295D01*
X53131Y282460D01*
X52877Y282657D01*
X52301Y283171D01*
X51990Y283479D01*
X51891Y283519D01*
X51620Y283790D01*
X50833Y284245D01*
X49955Y284480D01*
X49045D01*
X48167Y284245D01*
X47380Y283790D01*
X47109Y283519D01*
X47010Y283479D01*
X46699Y283171D01*
X46123Y282657D01*
X45869Y282460D01*
X45631Y282295D01*
X45413Y282165D01*
X45219Y282069D01*
X45052Y282007D01*
X44912Y281974D01*
X44756Y281961D01*
X44714Y281939D01*
X41321D01*
X40972Y281869D01*
X40676Y281672D01*
X38086Y279081D01*
X37624Y279273D01*
Y285863D01*
X41877Y290116D01*
X44714D01*
X44756Y290095D01*
X44912Y290081D01*
X45052Y290048D01*
X45219Y289986D01*
X45413Y289890D01*
X45631Y289760D01*
X45869Y289595D01*
X46123Y289398D01*
X46700Y288884D01*
X47010Y288576D01*
X47109Y288536D01*
X47380Y288265D01*
X48167Y287810D01*
X49045Y287575D01*
X49955D01*
X50833Y287810D01*
X51620Y288265D01*
X51891Y288536D01*
X51990Y288576D01*
X52301Y288884D01*
X52877Y289398D01*
X53131Y289595D01*
X53369Y289760D01*
X53587Y289890D01*
X53781Y289986D01*
X53948Y290048D01*
X54088Y290081D01*
X54244Y290095D01*
X54286Y290116D01*
X89123D01*
X98856Y280383D01*
X99151Y280186D01*
X99500Y280116D01*
X101214D01*
X101256Y280095D01*
X101412Y280081D01*
X101551Y280048D01*
X101719Y279986D01*
X101913Y279890D01*
X102131Y279760D01*
X102369Y279595D01*
X102623Y279398D01*
X103200Y278884D01*
X103510Y278576D01*
X103609Y278536D01*
X103880Y278265D01*
X104667Y277810D01*
X105545Y277575D01*
X106455D01*
X107333Y277810D01*
X108120Y278265D01*
X108391Y278536D01*
X108490Y278576D01*
X108801Y278884D01*
X109377Y279398D01*
X109631Y279595D01*
X109869Y279760D01*
X110087Y279890D01*
X110281Y279986D01*
X110449Y280048D01*
X110588Y280081D01*
X110652Y280087D01*
X117589Y273150D01*
Y234314D01*
X117567Y234272D01*
X117554Y234115D01*
X117521Y233976D01*
X117458Y233808D01*
X117363Y233614D01*
X117233Y233397D01*
X117068Y233158D01*
X116870Y232905D01*
X116356Y232328D01*
X116049Y232017D01*
X116008Y231919D01*
X115737Y231648D01*
X115282Y230860D01*
X115047Y229982D01*
Y229073D01*
X115282Y228195D01*
X115737Y227408D01*
X116380Y226765D01*
X117167Y226310D01*
X118045Y226075D01*
X118955D01*
X119833Y226310D01*
X120620Y226765D01*
X121263Y227408D01*
X121718Y228195D01*
X121953Y229073D01*
Y229982D01*
X121718Y230860D01*
X121263Y231648D01*
X120992Y231919D01*
X120951Y232017D01*
X120643Y232328D01*
X120130Y232905D01*
X119932Y233158D01*
X119767Y233397D01*
X119637Y233614D01*
X119542Y233808D01*
X119479Y233976D01*
X119446Y234115D01*
X119433Y234272D01*
X119411Y234314D01*
Y273528D01*
X119342Y273876D01*
X119144Y274172D01*
X111644Y281672D01*
X111349Y281869D01*
X111000Y281939D01*
X110786D01*
X110744Y281961D01*
X110588Y281974D01*
X110449Y282007D01*
X110281Y282069D01*
X110087Y282165D01*
X109869Y282295D01*
X109631Y282460D01*
X109377Y282657D01*
X108800Y283171D01*
X108490Y283479D01*
X108391Y283519D01*
X108120Y283790D01*
X107333Y284245D01*
X106455Y284480D01*
X105545D01*
X104667Y284245D01*
X103880Y283790D01*
X103609Y283519D01*
X103510Y283479D01*
X103199Y283171D01*
X102623Y282657D01*
X102369Y282460D01*
X102131Y282295D01*
X101913Y282165D01*
X101719Y282069D01*
X101551Y282007D01*
X101412Y281974D01*
X101256Y281961D01*
X101214Y281939D01*
X99877D01*
X90144Y291672D01*
X89849Y291869D01*
X89500Y291939D01*
X54286D01*
X54244Y291961D01*
X54088Y291974D01*
X53948Y292007D01*
X53781Y292070D01*
X53587Y292165D01*
X53369Y292295D01*
X53131Y292460D01*
X52877Y292657D01*
X52301Y293171D01*
X51990Y293479D01*
X51891Y293519D01*
X51620Y293790D01*
X50833Y294245D01*
X49955Y294480D01*
D02*
G37*
G36*
X102453Y229028D02*
X99000D01*
Y225575D01*
X102453D01*
Y229028D01*
D02*
G37*
G36*
X98000D02*
X94547D01*
Y225575D01*
X98000D01*
Y229028D01*
D02*
G37*
%LPD*%
G36*
X133296Y356803D02*
X133369Y356637D01*
X133484Y356490D01*
X133643Y356364D01*
X133844Y356256D01*
X134088Y356168D01*
X134375Y356100D01*
X134705Y356051D01*
X135077Y356022D01*
X135492Y356012D01*
Y354043D01*
X135095Y354033D01*
X134740Y354004D01*
X134429Y353955D01*
X134160Y353887D01*
X133933Y353798D01*
X133750Y353691D01*
X133609Y353563D01*
X133511Y353416D01*
X133456Y353250D01*
X133444Y353064D01*
X133265Y356989D01*
X133296Y356803D01*
D02*
G37*
G36*
X103525Y354392D02*
X103608Y353305D01*
X103661Y353006D01*
X103727Y352739D01*
X103805Y352504D01*
X103896Y352302D01*
X104000Y352131D01*
X104117Y351991D01*
X103622Y351496D01*
X103483Y351613D01*
X103312Y351717D01*
X103109Y351809D01*
X102874Y351887D01*
X102608Y351953D01*
X102309Y352006D01*
X101978Y352046D01*
X101222Y352088D01*
X100795Y352090D01*
X103524Y354819D01*
X103525Y354392D01*
D02*
G37*
G36*
X116867Y348408D02*
X116813Y348459D01*
X116754Y348505D01*
X116692Y348545D01*
X116626Y348580D01*
X116557Y348610D01*
X116484Y348634D01*
X116407Y348653D01*
X116327Y348667D01*
X116243Y348675D01*
X116155Y348678D01*
Y349378D01*
X116243Y349380D01*
X116327Y349388D01*
X116407Y349402D01*
X116484Y349421D01*
X116557Y349445D01*
X116626Y349475D01*
X116692Y349510D01*
X116754Y349550D01*
X116813Y349596D01*
X116867Y349648D01*
Y348408D01*
D02*
G37*
G36*
X97397Y362575D02*
X96686Y361748D01*
X96513Y361499D01*
X96370Y361264D01*
X96260Y361042D01*
X96181Y360834D01*
X96134Y360640D01*
X96118Y360459D01*
X95418D01*
X95402Y360640D01*
X95354Y360834D01*
X95276Y361042D01*
X95165Y361264D01*
X95023Y361499D01*
X94849Y361748D01*
X94644Y362010D01*
X94139Y362575D01*
X93839Y362878D01*
X97697D01*
X97397Y362575D01*
D02*
G37*
G36*
X96118Y349694D02*
X96119Y349607D01*
X96132Y349441D01*
X96144Y349362D01*
X96177Y349212D01*
X96198Y349141D01*
X96223Y349072D01*
X96251Y349006D01*
X96282Y348943D01*
X95100Y349318D01*
X95160Y349353D01*
X95214Y349394D01*
X95262Y349442D01*
X95303Y349495D01*
X95338Y349554D01*
X95367Y349619D01*
X95389Y349691D01*
X95405Y349768D01*
X95415Y349852D01*
X95418Y349941D01*
X96118Y349694D01*
D02*
G37*
G36*
X103891Y258961D02*
X103676Y259166D01*
X103454Y259350D01*
X103225Y259513D01*
X102990Y259653D01*
X102749Y259773D01*
X102501Y259870D01*
X102247Y259946D01*
X101986Y260000D01*
X101718Y260033D01*
X101444Y260043D01*
Y262012D01*
X101718Y262023D01*
X101986Y262055D01*
X102247Y262109D01*
X102501Y262185D01*
X102749Y262282D01*
X102990Y262402D01*
X103225Y262542D01*
X103454Y262705D01*
X103676Y262889D01*
X103891Y263094D01*
Y258961D01*
D02*
G37*
G36*
X108566Y259545D02*
X108565Y259480D01*
X108582Y259405D01*
X108616Y259321D01*
X108669Y259226D01*
X108739Y259121D01*
X108826Y259006D01*
X109055Y258747D01*
X109196Y258602D01*
X107804Y257210D01*
X107617Y257395D01*
X106904Y258012D01*
X106807Y258073D01*
X106724Y258115D01*
X106656Y258136D01*
X106604Y258137D01*
X108584Y259600D01*
X108566Y259545D01*
D02*
G37*
G36*
X109495Y233809D02*
X109528Y233542D01*
X109582Y233281D01*
X109658Y233027D01*
X109755Y232779D01*
X109874Y232537D01*
X110015Y232302D01*
X110177Y232074D01*
X110361Y231852D01*
X110567Y231636D01*
X106433D01*
X106639Y231852D01*
X106823Y232074D01*
X106985Y232302D01*
X107126Y232537D01*
X107245Y232779D01*
X107343Y233027D01*
X107418Y233281D01*
X107472Y233542D01*
X107505Y233809D01*
X107516Y234083D01*
X109484D01*
X109495Y233809D01*
D02*
G37*
G36*
X51930Y292777D02*
X52531Y292241D01*
X52810Y292024D01*
X53076Y291840D01*
X53328Y291689D01*
X53566Y291572D01*
X53791Y291488D01*
X54001Y291438D01*
X54198Y291421D01*
Y290634D01*
X54001Y290617D01*
X53791Y290567D01*
X53566Y290483D01*
X53328Y290366D01*
X53076Y290215D01*
X52810Y290032D01*
X52531Y289814D01*
X51930Y289279D01*
X51609Y288961D01*
Y293094D01*
X51930Y292777D01*
D02*
G37*
G36*
X47391Y288961D02*
X47070Y289279D01*
X46469Y289814D01*
X46190Y290032D01*
X45924Y290215D01*
X45672Y290366D01*
X45434Y290483D01*
X45209Y290567D01*
X44999Y290617D01*
X44802Y290634D01*
Y291421D01*
X44999Y291438D01*
X45209Y291488D01*
X45434Y291572D01*
X45672Y291689D01*
X45924Y291840D01*
X46190Y292024D01*
X46469Y292241D01*
X47070Y292777D01*
X47391Y293094D01*
Y288961D01*
D02*
G37*
G36*
X108430Y282777D02*
X109031Y282241D01*
X109310Y282024D01*
X109576Y281840D01*
X109828Y281689D01*
X110066Y281572D01*
X110291Y281488D01*
X110501Y281438D01*
X110698Y281421D01*
Y280634D01*
X110501Y280617D01*
X110291Y280567D01*
X110066Y280483D01*
X109828Y280366D01*
X109576Y280216D01*
X109310Y280031D01*
X109031Y279814D01*
X108430Y279278D01*
X108109Y278961D01*
Y283095D01*
X108430Y282777D01*
D02*
G37*
G36*
X103891Y278961D02*
X103570Y279278D01*
X102969Y279814D01*
X102690Y280031D01*
X102424Y280216D01*
X102172Y280366D01*
X101934Y280483D01*
X101709Y280567D01*
X101499Y280617D01*
X101302Y280634D01*
Y281421D01*
X101499Y281438D01*
X101709Y281488D01*
X101934Y281572D01*
X102172Y281689D01*
X102424Y281840D01*
X102690Y282024D01*
X102969Y282241D01*
X103570Y282777D01*
X103891Y283095D01*
Y278961D01*
D02*
G37*
G36*
X51930Y282777D02*
X52531Y282241D01*
X52810Y282024D01*
X53076Y281840D01*
X53328Y281689D01*
X53566Y281572D01*
X53791Y281488D01*
X54001Y281438D01*
X54198Y281421D01*
Y280634D01*
X54001Y280617D01*
X53791Y280567D01*
X53566Y280483D01*
X53328Y280366D01*
X53076Y280216D01*
X52810Y280031D01*
X52531Y279814D01*
X51930Y279278D01*
X51609Y278961D01*
Y283095D01*
X51930Y282777D01*
D02*
G37*
G36*
X47391Y278961D02*
X47070Y279278D01*
X46469Y279814D01*
X46190Y280031D01*
X45924Y280216D01*
X45672Y280366D01*
X45434Y280483D01*
X45209Y280567D01*
X44999Y280617D01*
X44802Y280634D01*
Y281421D01*
X44999Y281438D01*
X45209Y281488D01*
X45434Y281572D01*
X45672Y281689D01*
X45924Y281840D01*
X46190Y282024D01*
X46469Y282241D01*
X47070Y282777D01*
X47391Y283095D01*
Y278961D01*
D02*
G37*
G36*
X108896Y271689D02*
X108984Y271500D01*
X109084Y271333D01*
X109196Y271188D01*
X109321Y271066D01*
X109459Y270966D01*
X109609Y270888D01*
X109771Y270832D01*
X109946Y270798D01*
X110134Y270787D01*
Y270000D01*
X109919Y269990D01*
X109709Y269962D01*
X109503Y269915D01*
X109302Y269848D01*
X109106Y269763D01*
X108914Y269659D01*
X108728Y269535D01*
X108545Y269393D01*
X108368Y269232D01*
X108195Y269052D01*
X108821Y271901D01*
X108896Y271689D01*
D02*
G37*
G36*
X103891Y268961D02*
X103570Y269279D01*
X102969Y269814D01*
X102690Y270031D01*
X102424Y270216D01*
X102172Y270366D01*
X101934Y270483D01*
X101709Y270567D01*
X101499Y270617D01*
X101302Y270634D01*
Y271421D01*
X101499Y271438D01*
X101709Y271488D01*
X101934Y271572D01*
X102172Y271689D01*
X102424Y271840D01*
X102690Y272024D01*
X102969Y272241D01*
X103570Y272777D01*
X103891Y273095D01*
Y268961D01*
D02*
G37*
G36*
X118910Y234029D02*
X118961Y233818D01*
X119044Y233594D01*
X119161Y233356D01*
X119312Y233104D01*
X119496Y232838D01*
X119714Y232558D01*
X120249Y231957D01*
X120567Y231636D01*
X116433D01*
X116751Y231957D01*
X117286Y232558D01*
X117504Y232838D01*
X117688Y233104D01*
X117839Y233356D01*
X117956Y233594D01*
X118039Y233818D01*
X118090Y234029D01*
X118106Y234226D01*
X118894D01*
X118910Y234029D01*
D02*
G37*
G36*
X129451Y226732D02*
X128928Y226552D01*
X126463Y225530D01*
X126370Y225455D01*
X125615Y225814D01*
X125760Y225986D01*
X125875Y226179D01*
X125961Y226394D01*
X126017Y226632D01*
X126043Y226891D01*
X126039Y227173D01*
X126005Y227477D01*
X125941Y227802D01*
X125848Y228150D01*
X125724Y228520D01*
X129451Y226732D01*
D02*
G37*
G36*
X35972Y110100D02*
X35904Y110029D01*
X35844Y109956D01*
X35792Y109882D01*
X35746Y109807D01*
X35707Y109731D01*
X35676Y109654D01*
X35652Y109575D01*
X35635Y109496D01*
X35625Y109415D01*
X35622Y109333D01*
X34648Y110307D01*
X34730Y110310D01*
X34811Y110320D01*
X34890Y110337D01*
X34969Y110361D01*
X35046Y110392D01*
X35122Y110431D01*
X35197Y110477D01*
X35271Y110529D01*
X35344Y110590D01*
X35415Y110657D01*
X35972Y110100D01*
D02*
G37*
G36*
X36334Y107305D02*
X36267Y107233D01*
X36207Y107161D01*
X36154Y107087D01*
X36108Y107012D01*
X36070Y106936D01*
X36038Y106859D01*
X36014Y106780D01*
X35997Y106700D01*
X35987Y106620D01*
X35984Y106537D01*
X35010Y107512D01*
X35092Y107515D01*
X35173Y107524D01*
X35252Y107542D01*
X35331Y107566D01*
X35408Y107597D01*
X35484Y107636D01*
X35559Y107681D01*
X35633Y107734D01*
X35706Y107794D01*
X35777Y107861D01*
X36334Y107305D01*
D02*
G37*
%LPC*%
G36*
X42795Y349012D02*
X42205D01*
X41659Y348786D01*
X41242Y348368D01*
X41016Y347823D01*
Y347232D01*
X41242Y346687D01*
X41659Y346269D01*
X42205Y346043D01*
X42795D01*
X43341Y346269D01*
X43758Y346687D01*
X43984Y347232D01*
Y347823D01*
X43758Y348368D01*
X43341Y348786D01*
X42795Y349012D01*
D02*
G37*
G36*
X21026Y334138D02*
X20044D01*
X19137Y333762D01*
X18443Y333068D01*
X18067Y332161D01*
Y331178D01*
X18443Y330271D01*
X18851Y329863D01*
X18568Y329439D01*
X17917Y329709D01*
X17052D01*
X16253Y329378D01*
X15642Y328767D01*
X15311Y327968D01*
Y327103D01*
X15642Y326305D01*
X16253Y325693D01*
X17052Y325362D01*
X17917D01*
X18715Y325693D01*
X19327Y326305D01*
X19658Y327103D01*
Y327968D01*
X19327Y328767D01*
X19002Y329092D01*
X19285Y329516D01*
X20044Y329201D01*
X21026D01*
X21934Y329577D01*
X22628Y330271D01*
X23004Y331178D01*
Y332161D01*
X22628Y333068D01*
X21934Y333762D01*
X21026Y334138D01*
D02*
G37*
G36*
X23953Y303980D02*
X17047D01*
Y297075D01*
X23953D01*
Y303980D01*
D02*
G37*
G36*
X37965Y334596D02*
Y332170D01*
X40220D01*
X40165Y332590D01*
X39886Y333264D01*
X39441Y333843D01*
X38862Y334287D01*
X38188Y334567D01*
X37965Y334596D01*
D02*
G37*
G36*
X36965Y334596D02*
X36741Y334567D01*
X36067Y334287D01*
X35488Y333843D01*
X35044Y333264D01*
X34764Y332590D01*
X34709Y332170D01*
X36965D01*
Y334596D01*
D02*
G37*
G36*
Y331170D02*
X34709D01*
X34764Y330749D01*
X35044Y330075D01*
X35488Y329496D01*
X36067Y329052D01*
X36741Y328772D01*
X36965Y328743D01*
Y331170D01*
D02*
G37*
G36*
X40220D02*
X37965D01*
Y328743D01*
X38188Y328772D01*
X38560Y328926D01*
X38746Y328760D01*
X38893Y328523D01*
X38638Y327909D01*
Y327162D01*
X38924Y326472D01*
X39453Y325943D01*
X40143Y325658D01*
X40890D01*
X41580Y325943D01*
X42109Y326472D01*
X42395Y327162D01*
Y327909D01*
X42109Y328599D01*
X41580Y329128D01*
X40890Y329414D01*
X40143D01*
X39946Y329332D01*
X39631Y329743D01*
X39886Y330075D01*
X40165Y330749D01*
X40220Y331170D01*
D02*
G37*
%LPD*%
D10*
X36713Y286240D02*
X41500Y291028D01*
X36713Y197225D02*
Y286240D01*
Y197225D02*
X36713Y197225D01*
X35000Y106528D02*
X38000Y109528D01*
X36713Y111398D02*
Y197225D01*
X38000Y109528D02*
Y277707D01*
X41321Y281028D01*
X34638Y109323D02*
X36713Y111398D01*
X54500Y318028D02*
Y343528D01*
X27000Y290528D02*
X54500Y318028D01*
X20500Y290528D02*
X27000D01*
X41500Y291028D02*
X49500D01*
X89500D01*
X41321Y281028D02*
X49500D01*
X89000D01*
X70994Y162534D02*
X71000Y162528D01*
X71399Y107948D02*
Y109949D01*
X69910Y111438D02*
X71399Y109949D01*
X69000Y162028D02*
X69506Y162534D01*
X70994D01*
X69000Y112348D02*
X69910Y111438D01*
X69000Y112348D02*
Y162028D01*
X71399Y107948D02*
X72000Y107347D01*
Y107028D02*
Y107347D01*
X71778Y164406D02*
X73562Y162621D01*
X69557Y164406D02*
X71778D01*
X70112Y107954D02*
Y109416D01*
X69000Y110528D02*
X70112Y109416D01*
X67713Y162561D02*
X69557Y164406D01*
X67713Y111815D02*
X69000Y110528D01*
X69000D01*
X67713Y111815D02*
Y162561D01*
X69510Y107353D02*
X70112Y107954D01*
X69510Y107034D02*
Y107353D01*
X99500Y281028D02*
X106000D01*
X111000D02*
X118500Y273528D01*
Y229528D02*
Y273528D01*
X106000Y281028D02*
X111000D01*
X89500Y291028D02*
X99500Y281028D01*
X99000Y271028D02*
X106000D01*
X89000Y281028D02*
X99000Y271028D01*
X106634Y270394D02*
X110134D01*
X106000Y271028D02*
X106634Y270394D01*
X128500Y228143D02*
Y229528D01*
X124885Y224528D02*
X128500Y228143D01*
X115000Y224528D02*
X124885D01*
X113500Y226028D02*
Y267028D01*
X110134Y270394D02*
X113500Y267028D01*
Y226028D02*
X115000Y224528D01*
D16*
X76000Y260528D02*
X76500Y261028D01*
X106000D01*
Y260406D02*
Y261028D01*
X108500Y229528D02*
Y257906D01*
X106000Y260406D02*
X108500Y257906D01*
X204000Y338028D02*
X204240Y337787D01*
Y335268D02*
Y337787D01*
X204000Y338028D02*
X204500Y338528D01*
Y372374D01*
X203347Y373528D02*
X204500Y372374D01*
X181500Y373528D02*
X203347D01*
X66240Y343787D02*
X151760D01*
X181500Y373528D01*
X130831Y355028D02*
X152500D01*
D67*
X32335Y63238D02*
X35090D01*
X37091Y65075D02*
Y65182D01*
X37464Y65554D01*
X188500Y219528D02*
Y366238D01*
X37464Y65554D02*
Y65898D01*
X35500Y63648D02*
Y66528D01*
X188500Y219528D01*
X39312Y63869D02*
Y64483D01*
X39500Y64670D01*
X39070Y63626D02*
X39312Y63869D01*
X37000Y64983D02*
X37091Y65075D01*
X39500Y64670D02*
Y68528D01*
X190500Y219528D01*
Y364528D01*
X38281Y61792D02*
X42264D01*
X199500Y217331D02*
Y366528D01*
X30500Y60528D02*
X42697D01*
X197500Y217028D02*
Y364528D01*
X42264Y61792D02*
X197500Y217028D01*
X42697Y60528D02*
X199500Y217331D01*
X30000Y61028D02*
X30500Y60528D01*
X95768Y349085D02*
Y364846D01*
X95500Y348817D02*
X95768Y349085D01*
X95500Y348528D02*
Y348817D01*
X100768Y354846D02*
X106586Y349028D01*
X117500D01*
X37000Y63073D02*
X38281Y61792D01*
X37000Y63073D02*
Y64983D01*
X198500Y367528D02*
X199500Y366528D01*
X31000Y66028D02*
X33500D01*
X30000Y65028D02*
X31000Y66028D01*
X30000Y61028D02*
Y65028D01*
X189000Y366738D02*
Y367028D01*
X188500Y366238D02*
X189000Y366738D01*
X35090Y63238D02*
X35500Y63648D01*
X130768Y354965D02*
X130831Y355028D01*
D70*
X85768Y364846D02*
D03*
X95768Y364846D02*
D03*
X105768D02*
D03*
X115768Y364846D02*
D03*
X125768D02*
D03*
X90768Y354846D02*
D03*
X100768D02*
D03*
X110768D02*
D03*
X120768D02*
D03*
D71*
X130768D02*
D03*
D72*
X85768Y389846D02*
D03*
X130768D02*
D03*
D73*
X124370Y409137D02*
D03*
X92165D02*
D03*
X134370D02*
D03*
X82165D02*
D03*
D74*
X77776Y377838D02*
D03*
X138760Y377838D02*
D03*
D75*
X31563Y381945D02*
D03*
X39437D02*
D03*
X21721D02*
D03*
X49279D02*
D03*
D76*
X61366Y392614D02*
D03*
X9634D02*
D03*
D77*
X211043Y391713D02*
D03*
X153957D02*
D03*
D78*
X211043Y415335D02*
D03*
X153957Y415335D02*
D03*
D79*
X40516Y327536D02*
D03*
D80*
X17484D02*
D03*
D81*
X37465Y331670D02*
D03*
D82*
X20535D02*
D03*
D83*
X29000Y323402D02*
D03*
D84*
X20500Y290528D02*
D03*
X108500Y229528D02*
D03*
X118500D02*
D03*
X128500D02*
D03*
X106000Y291028D02*
D03*
Y281028D02*
D03*
Y271028D02*
D03*
Y261028D02*
D03*
X49500Y301028D02*
D03*
Y291028D02*
D03*
Y281028D02*
D03*
D85*
X20500Y300528D02*
D03*
X106000Y301028D02*
D03*
X49500Y271028D02*
D03*
D86*
X98500Y229528D02*
D03*
D87*
X108268Y324803D02*
D03*
D88*
X212287Y401035D02*
D03*
Y377413D02*
D03*
Y353791D02*
D03*
Y330169D02*
D03*
Y306547D02*
D03*
X206382Y294736D02*
D03*
X212287Y282925D02*
D03*
X206382Y271114D02*
D03*
X212287Y259303D02*
D03*
X206382Y247492D02*
D03*
X212287Y235681D02*
D03*
X206382Y223870D02*
D03*
X212287Y212059D02*
D03*
X206382Y200248D02*
D03*
X212287Y188437D02*
D03*
X206382Y176626D02*
D03*
X212287Y164815D02*
D03*
X206382Y153004D02*
D03*
X212287Y141193D02*
D03*
X206382Y129382D02*
D03*
X212287Y117571D02*
D03*
X194571Y412846D02*
D03*
X200476Y401035D02*
D03*
Y377413D02*
D03*
X194571Y318358D02*
D03*
Y294736D02*
D03*
Y271114D02*
D03*
Y247492D02*
D03*
Y223870D02*
D03*
X200476Y212059D02*
D03*
X194571Y200248D02*
D03*
X200476Y188437D02*
D03*
X194571Y176626D02*
D03*
X200476Y164815D02*
D03*
X194571Y153004D02*
D03*
X200476Y141193D02*
D03*
X194571Y129382D02*
D03*
X200476Y117571D02*
D03*
X182760Y412846D02*
D03*
X188665Y401035D02*
D03*
Y212059D02*
D03*
Y188437D02*
D03*
X182760Y176626D02*
D03*
X188665Y164815D02*
D03*
X182760Y153004D02*
D03*
X188665Y141193D02*
D03*
X182760Y129382D02*
D03*
X188665Y117571D02*
D03*
X170949Y412846D02*
D03*
X176854Y401035D02*
D03*
Y164815D02*
D03*
X170949Y153004D02*
D03*
X176854Y141193D02*
D03*
X170949Y129382D02*
D03*
X176854Y117571D02*
D03*
X159137Y412846D02*
D03*
X165043Y401035D02*
D03*
X159137Y389224D02*
D03*
Y365602D02*
D03*
Y271114D02*
D03*
Y247492D02*
D03*
Y223870D02*
D03*
Y200248D02*
D03*
Y153004D02*
D03*
X165043Y141193D02*
D03*
X159137Y129382D02*
D03*
X165043Y117571D02*
D03*
X147327Y412846D02*
D03*
X153232Y401035D02*
D03*
X147327Y389224D02*
D03*
X153232Y377413D02*
D03*
X147327Y365602D02*
D03*
X153232Y188437D02*
D03*
Y164815D02*
D03*
Y141193D02*
D03*
X147327Y129382D02*
D03*
X153232Y117571D02*
D03*
X141421Y401035D02*
D03*
X135515Y365602D02*
D03*
X141421Y306547D02*
D03*
X135515Y129382D02*
D03*
X141421Y117571D02*
D03*
X129610Y401035D02*
D03*
Y377413D02*
D03*
Y306547D02*
D03*
X123705Y294736D02*
D03*
X129610Y282925D02*
D03*
X123705Y271114D02*
D03*
X129610Y259303D02*
D03*
X123705Y247492D02*
D03*
X129610Y235681D02*
D03*
Y212059D02*
D03*
X123705Y200248D02*
D03*
X129610Y164815D02*
D03*
Y141193D02*
D03*
Y117571D02*
D03*
X117799Y401035D02*
D03*
X111893Y389224D02*
D03*
X117799Y377413D02*
D03*
Y306547D02*
D03*
X111893Y294736D02*
D03*
X117799Y282925D02*
D03*
X111893Y223870D02*
D03*
X117799Y212059D02*
D03*
X111893Y200248D02*
D03*
X117799Y188437D02*
D03*
X111893Y105760D02*
D03*
Y82138D02*
D03*
Y58516D02*
D03*
Y34894D02*
D03*
Y11272D02*
D03*
X105988Y401035D02*
D03*
Y377413D02*
D03*
X100082Y365602D02*
D03*
X105988Y306547D02*
D03*
X100082Y294736D02*
D03*
Y247492D02*
D03*
Y223870D02*
D03*
X105988Y212059D02*
D03*
X100082Y200248D02*
D03*
X105988Y188437D02*
D03*
X100082Y176626D02*
D03*
X105988Y141193D02*
D03*
Y117571D02*
D03*
Y93949D02*
D03*
X100082Y82138D02*
D03*
X105988Y70327D02*
D03*
X100082Y58516D02*
D03*
X105988Y46705D02*
D03*
X100082Y34894D02*
D03*
X105988Y23083D02*
D03*
X94177Y401035D02*
D03*
Y377413D02*
D03*
Y306547D02*
D03*
Y282925D02*
D03*
X88271Y271114D02*
D03*
Y247492D02*
D03*
X94177Y235681D02*
D03*
X88271Y223870D02*
D03*
X94177Y212059D02*
D03*
X88271Y200248D02*
D03*
X94177Y188437D02*
D03*
X88271Y176626D02*
D03*
X94177Y164815D02*
D03*
X88271Y11272D02*
D03*
X76460Y412846D02*
D03*
X82366Y401035D02*
D03*
X76460Y389224D02*
D03*
Y365602D02*
D03*
X82366Y306547D02*
D03*
Y212059D02*
D03*
X76460Y200248D02*
D03*
X82366Y188437D02*
D03*
X76460Y176626D02*
D03*
X82366Y164815D02*
D03*
Y117571D02*
D03*
X76460Y11272D02*
D03*
X64649Y412846D02*
D03*
X70555Y401035D02*
D03*
X64649Y365602D02*
D03*
X70555Y306547D02*
D03*
X64649Y294736D02*
D03*
X70555Y259303D02*
D03*
Y235681D02*
D03*
Y212059D02*
D03*
X64649Y176626D02*
D03*
Y153004D02*
D03*
Y11272D02*
D03*
X52838Y412846D02*
D03*
Y389224D02*
D03*
X58744Y377413D02*
D03*
Y330169D02*
D03*
Y306547D02*
D03*
X52838Y294736D02*
D03*
X58744Y259303D02*
D03*
X52838Y247492D02*
D03*
X58744Y235681D02*
D03*
X52838Y223870D02*
D03*
Y200248D02*
D03*
X58744Y188437D02*
D03*
X52838Y176626D02*
D03*
X58744Y164815D02*
D03*
X52838Y153004D02*
D03*
X58744Y141193D02*
D03*
X52838Y11272D02*
D03*
X41027Y412846D02*
D03*
X46933Y401035D02*
D03*
X41027Y389224D02*
D03*
X46933Y306547D02*
D03*
Y259303D02*
D03*
Y212059D02*
D03*
X41027Y200248D02*
D03*
X46933Y188437D02*
D03*
X41027Y176626D02*
D03*
X46933Y164815D02*
D03*
X41027Y153004D02*
D03*
X46933Y141193D02*
D03*
X41027Y129382D02*
D03*
X46933Y117571D02*
D03*
X41027Y11272D02*
D03*
X29216Y412846D02*
D03*
X35122Y401035D02*
D03*
X29216Y389224D02*
D03*
X35122Y377413D02*
D03*
X29216Y365602D02*
D03*
X35122Y70327D02*
D03*
X29216Y11272D02*
D03*
X17405Y412846D02*
D03*
X23311Y401035D02*
D03*
X17405Y365602D02*
D03*
Y34894D02*
D03*
X5594Y412846D02*
D03*
X11500Y377413D02*
D03*
X5594Y365602D02*
D03*
Y34894D02*
D03*
X11500Y23083D02*
D03*
X5594Y11272D02*
D03*
X136469Y288496D02*
D03*
X34638Y109323D02*
D03*
X35000Y106528D02*
D03*
X32335Y63238D02*
D03*
X37464Y65898D02*
D03*
X39070Y63626D02*
D03*
X47969Y337028D02*
D03*
X54500Y343528D02*
D03*
X24500Y46528D02*
D03*
X22532D02*
D03*
X20500D02*
D03*
X33500Y66028D02*
D03*
X69510Y107034D02*
D03*
X72000Y107028D02*
D03*
X71000Y162528D02*
D03*
X73562Y162621D02*
D03*
X76000Y260528D02*
D03*
X190500Y364528D02*
D03*
X197500D02*
D03*
X198500Y367528D02*
D03*
X189000Y367028D02*
D03*
X136500Y278528D02*
D03*
X196437Y381685D02*
D03*
X181703Y378731D02*
D03*
X184468Y381559D02*
D03*
X169717Y378811D02*
D03*
X204000Y338028D02*
D03*
X169717Y368811D02*
D03*
X201870Y360528D02*
D03*
X4500Y46528D02*
D03*
X66240Y343787D02*
D03*
X204500Y319528D02*
D03*
X204240Y335268D02*
D03*
X42500Y347528D02*
D03*
X62929Y351268D02*
D03*
X66240D02*
D03*
X193685Y369342D02*
D03*
X181717Y368811D02*
D03*
X160500Y359028D02*
D03*
X152500Y355028D02*
D03*
X35500Y359028D02*
D03*
Y369528D02*
D03*
X207500Y367528D02*
D03*
X44236Y57895D02*
D03*
X149000Y278732D02*
D03*
Y288232D02*
D03*
X166752Y381780D02*
D03*
X172658Y381685D02*
D03*
X178563Y381591D02*
D03*
X193654Y378874D02*
D03*
D89*
X4500Y48528D02*
D03*
Y44528D02*
D03*
X97386Y16528D02*
D03*
X91480D02*
D03*
X85575D02*
D03*
X79669D02*
D03*
X73764D02*
D03*
X67858D02*
D03*
X61953D02*
D03*
X56047D02*
D03*
X50142D02*
D03*
X44236D02*
D03*
X95500Y348528D02*
D03*
X117500Y349028D02*
D03*
D90*
X23250Y49778D02*
D03*
D91*
X65000Y347278D02*
D03*
M02*
