G04*
G04 #@! TF.GenerationSoftware,Altium Limited,Altium Designer,21.3.2 (30)*
G04*
G04 Layer_Color=32768*
%FSLAX25Y25*%
%MOIN*%
G70*
G04*
G04 #@! TF.SameCoordinates,97996B78-1690-4D19-8AB1-FF8F13014A98*
G04*
G04*
G04 #@! TF.FilePolarity,Positive*
G04*
G01*
G75*
%ADD11C,0.00591*%
%ADD92C,0.00394*%
%ADD94C,0.00197*%
%ADD95C,0.00010*%
D11*
X140700Y286882D02*
G03*
X140700Y286882I-295J0D01*
G01*
X39732Y367678D02*
G03*
X39732Y367678I-295J0D01*
G01*
X190012Y370957D02*
G03*
X190012Y370957I-295J0D01*
G01*
X153232Y286678D02*
G03*
X153232Y286678I-295J0D01*
G01*
X166075Y370957D02*
G03*
X166075Y370957I-295J0D01*
G01*
X178075Y370957D02*
G03*
X178075Y370957I-295J0D01*
G01*
D92*
X202335Y332252D02*
X206665D01*
X202335Y322803D02*
X206665D01*
Y332252D01*
X202335Y322803D02*
Y332252D01*
X204500Y325658D02*
Y329398D01*
X202630Y327528D02*
X206370D01*
X61327Y242402D02*
X89673D01*
X61327Y276654D02*
X89673Y276654D01*
X61327Y242402D02*
Y276654D01*
X89673Y242402D02*
Y276654D01*
X75500Y261496D02*
X75500Y257559D01*
X73532Y259528D02*
X77469D01*
X16224Y44362D02*
Y48693D01*
X6776Y44362D02*
Y48693D01*
Y44362D02*
X16224D01*
X6776Y48693D02*
X16224D01*
X9630Y46528D02*
X13370D01*
X11500Y44657D02*
Y48398D01*
X55000Y335157D02*
Y338898D01*
X53130Y337028D02*
X56870D01*
X50276Y339193D02*
X59724D01*
X50276Y334862D02*
X59724D01*
X50276D02*
Y339193D01*
X59724Y334862D02*
Y339193D01*
X205630Y374528D02*
X209370D01*
X207500Y372657D02*
Y376398D01*
X205335Y369803D02*
Y379252D01*
X209665Y369803D02*
Y379252D01*
X205335Y369803D02*
X209665D01*
X205335Y379252D02*
X209665D01*
D94*
X59000Y14469D02*
X59000Y10531D01*
X57032Y12500D02*
X60969D01*
X5949Y2953D02*
X112051Y2953D01*
X5949Y2953D02*
Y25728D01*
X112051Y25728D01*
Y2953D02*
Y25728D01*
X106299Y389727D02*
X110236Y389727D01*
X108268Y391696D02*
X108268Y387759D01*
X68386Y345948D02*
X148150D01*
X68386Y433507D02*
X68386Y345948D01*
X68386Y433507D02*
X148150D01*
X148150Y345948D01*
X68945Y377181D02*
Y433874D01*
X2055D02*
X68945D01*
X2055Y377181D02*
Y433874D01*
Y377181D02*
X68945D01*
X35500Y403559D02*
Y407496D01*
X33531Y405528D02*
X37468D01*
X180532Y409528D02*
X184468D01*
X182500Y407559D02*
Y411496D01*
X193610Y357090D02*
X207390D01*
X193610Y339965D02*
Y357090D01*
Y339965D02*
X207390D01*
Y357090D01*
X84500Y292445D02*
X84500Y294610D01*
X83417Y293528D02*
X85583Y293528D01*
X80760Y295496D02*
X88240D01*
X80760Y291559D02*
X88240D01*
X80760D02*
Y295496D01*
X88240Y291559D02*
X88240Y295496D01*
X88240Y296559D02*
X88240Y300496D01*
X80760Y296559D02*
Y300496D01*
Y296559D02*
X88240D01*
X80760Y300496D02*
X88240D01*
X83417Y298528D02*
X85583Y298528D01*
X84500Y297445D02*
X84500Y299610D01*
X40500Y342445D02*
X40500Y344610D01*
X39417Y343528D02*
X41583Y343528D01*
X36760Y341559D02*
X44240D01*
X36760Y345496D02*
X44240D01*
Y341559D02*
Y345496D01*
X36760Y341559D02*
X36760Y345496D01*
X45937Y340638D02*
Y354417D01*
Y340638D02*
X63063D01*
Y354417D01*
X45937D02*
X63063D01*
X190417Y355528D02*
X192583Y355528D01*
X191500Y356610D02*
X191500Y354445D01*
X189532Y351787D02*
Y359268D01*
X193468Y351787D02*
Y359268D01*
X189532Y351787D02*
X193468D01*
X189532Y359268D02*
X193468Y359268D01*
X155917Y357028D02*
X158083Y357028D01*
X157000Y358110D02*
X157000Y355945D01*
X155032Y353287D02*
Y360768D01*
X158968Y353287D02*
Y360768D01*
X155032Y353287D02*
X158968D01*
X155032Y360768D02*
X158968Y360768D01*
D95*
X34818Y312065D02*
X35018Y312265D01*
X32982Y315290D02*
X33182Y315490D01*
M02*
