M48
;Layer_Color=9474304
;FILE_FORMAT=2:5
INCH,LZ
;TYPE=PLATED
T1F00S00C0.00787
T3F00S00C0.02756
T4F00S00C0.03543
T6F00S00C0.03622
T7F00S00C0.04016
T8F00S00C0.06417
T9F00S00C0.09055
;TYPE=NON_PLATED
T11F00S00C0.02756
T12F00S00C0.03346
T13F00S00C0.12795
%
T01
X0005594Y0011272
X00115Y0023083
X0017405Y0034894
X0005594
X00045Y0044528
X00045Y0046528
X00045Y0048528
X00205Y0046528
X0022532
X00245
X0032335Y0063238
X00335Y0066028
X0037464Y0065898
X003907Y0063626
X0035122Y0070327
X0035Y0106528
X0034638Y0109323
X0029216Y0011272
X0041027
X0044236Y0016528
X0050142
X0056047
X0061953
X0067858
X0073764
X0079669
X0085575
X009148
X0097386
X0088271Y0011272
X007646
X0064649
X0052838
X0044236Y0057895
X0100082Y0058516
X0111893
X0105988Y0070327
X0111893Y0082138
X0100082
X0105988Y0093949
X0111893Y010576
X0105988Y0117571
X012961
X0141421
X0153232
X0165043
X0176854
X0188665
X0082366
X0072Y0107028
X006951Y0107034
X0046933Y0117571
X0105988Y0046705
X0111893Y0034894
X0100082
X0105988Y0023083
X0111893Y0011272
X0200476Y0117571
X0212287
X0206382Y0129382
X0212287Y0141193
X0200476
X0206382Y0153004
X0212287Y0164815
X0200476
X0206382Y0176626
X0212287Y0188437
X0200476
X0206382Y0200248
X0212287Y0212059
X0200476
X0206382Y022387
X0212287Y0235681
X0206382Y0247492
X0212287Y0259303
X0206382Y0271114
X0194571
Y0247492
Y022387
X0188665Y0212059
X0194571Y0200248
X0188665Y0188437
X0194571Y0176626
X018276
X0188665Y0164815
X0176854
X018276Y0153004
X0194571
X0188665Y0141193
X0176854
X0165043
X0153232
X0159137Y0153004
X0170949
Y0129382
X018276
X0194571
X0159137
X0147327
X0135515
X012961Y0141193
Y0164815
X0153232
Y0188437
X0159137Y0200248
Y022387
Y0247492
Y0271114
X0123705
X012961Y0259303
X0123705Y0247492
X012961Y0235681
Y0212059
X0117799
X0105988
X0094177
X0082366
X0070555
X007646Y0200248
X0088271
X0100082
X0111893
X0123705
X0117799Y0188437
X0105988
X0094177
X0082366
X0088271Y0176626
X0100082
X0094177Y0164815
X0082366
X0073562Y0162621
X0071Y0162528
X0058744Y0164815
X0046933
X0052838Y0176626
X0064649
X007646
X0058744Y0188437
X0046933
X0052838Y0200248
X0046933Y0212059
X0052838Y022387
X0058744Y0235681
X0070555
X0094177
X0100082Y0247492
X0088271
Y0271114
X0076Y0260528
X0070555Y0259303
X0058744
X0046933
X0052838Y0247492
X0088271Y022387
X0100082
X0111893
X0105988Y0141193
X0058744
X0046933
X0052838Y0153004
X0064649
X0041027
Y0176626
Y0200248
Y0129382
X00425Y0347528
X00355Y0359028
Y0369528
X0035122Y0377413
X0041027Y0389224
X0029216
X0035122Y0401035
X0023311
X0029216Y0412846
X0041027
X0017405
X0005594
X00115Y0377413
X0017405Y0365602
X0029216
X0005594
X0064649
X007646
X0100082
X0105988Y0377413
X0117799
X012961
X0135515Y0365602
X0147327
X0159137
X01605Y0359028
X01525Y0355028
X0153232Y0377413
X0159137Y0389224
X0147327
X0153232Y0401035
X0165043
X0176854
X0188665
X0194571Y0412846
X018276
X0170949
X0159137
X0147327
X0141421Y0401035
X012961
X0117799
X0105988
X0094177
X0082366
X0070555
X007646Y0412846
X0064649
X0052838
X0046933Y0401035
X0052838Y0389224
X0058744Y0377413
X007646Y0389224
X0094177Y0377413
X0111893Y0389224
X01175Y0349028
X00955Y0348528
X006624Y0351268
X0062929
X006624Y0343787
X00545Y0343528
X0047969Y0337028
X0058744Y0330169
Y0306547
X0070555
X0082366
X0094177
X0105988
X0117799
X012961
X0141421
X0136469Y0288496
X01365Y0278528
X012961Y0282925
X0117799
X0123705Y0294736
X0111893
X0100082
X0094177Y0282925
X0064649Y0294736
X0052838
X0046933Y0306547
X0149Y0288232
Y0278732
X0194571Y0294736
Y0318358
X01975Y0364528
X01985Y0367528
X0193685Y0369342
X0189Y0367028
X01905Y0364528
X0181717Y0368811
X0181703Y0378731
X0184468Y0381559
X0178563Y0381591
X0172658Y0381685
X0169717Y0378811
X0166752Y038178
X0169717Y0368811
X0193654Y0378874
X0196437Y0381685
X0200476Y0377413
X0212287
X02075Y0367528
X020187Y0360528
X0212287Y0353791
Y0330169
X020424Y0335268
X0204Y0338028
X02045Y0319528
X0212287Y0306547
X0206382Y0294736
X0212287Y0282925
Y0401035
X0200476
T03
X0020535Y033167
X0037465
T04
X00495Y0271028
X0106
Y0261028
X01085Y0229528
X00985
X01185
X01285
X00205Y0290528
Y0300528
X00495Y0301028
Y0291028
Y0281028
X0106
Y0291028
Y0301028
X0110768Y0354846
X0100768
X0090768
X0095768Y0364846
X0085768Y0364846
X0105768Y0364846
X0115768Y0364846
X0125768
X0120768Y0354846
X0130768
T06
X0021721Y0381945
X0031563
X0039437
X0049279
T07
X0082165Y0409137
X0092165
X012437
X013437
T08
X0077776Y0377838
X013876Y0377838
T09
X0009634Y0392614
X0061366
T11
X0040516Y0327536
T12
X0017484Y0327536
T13
X0085768Y0389846
X0130768
M30
